<?xml version="1.0" encoding="UTF-8" standalone="no"?>
<!DOCTYPE svg PUBLIC "-//W3C//DTD SVG 1.1//EN"
 "http://www.w3.org/Graphics/SVG/1.1/DTD/svg11.dtd">
<!-- Generated by graphviz version 2.38.0 (20140413.2041)
 -->
<!-- Title: getoutdir Pages: 1 -->
<svg width="321pt" height="28pt"
 viewBox="0.00 0.00 321.00 28.00" xmlns="http://www.w3.org/2000/svg" xmlns:xlink="http://www.w3.org/1999/xlink">
<g id="graph0" class="graph" transform="scale(1 1) rotate(0) translate(4 24)">
<title>getoutdir</title>
<!-- Node1 -->
<g id="node1" class="node"><title>Node1</title>
<polygon fill="#bfbfbf" stroke="black" points="0,-0.5 0,-19.5 60,-19.5 60,-0.5 0,-0.5"/>
<text text-anchor="middle" x="30" y="-7.5" font-family="Helvetica,sans-Serif" font-size="10.00">getoutdir</text>
</g>
<!-- Node2 -->
<g id="node2" class="node"><title>Node2</title>
<g id="a_node2"><a xlink:href="uexternaldb_8for.html#af82fa72f6d0f9acdbf18f2de5016962b" target="_top" xlink:title="uexternaldb">
<polygon fill="none" stroke="black" points="96,-0.5 96,-19.5 170,-19.5 170,-0.5 96,-0.5"/>
<text text-anchor="middle" x="133" y="-7.5" font-family="Helvetica,sans-Serif" font-size="10.00">uexternaldb</text>
</a>
</g>
</g>
<!-- Node1&#45;&gt;Node2 -->
<g id="edge1" class="edge"><title>Node1&#45;&gt;Node2</title>
<path fill="none" stroke="midnightblue" d="M70.4414,-10C78.7505,-10 87.4798,-10 95.6682,-10"/>
<polygon fill="midnightblue" stroke="midnightblue" points="70.2134,-6.5001 60.2134,-10 70.2134,-13.5001 70.2134,-6.5001"/>
</g>
<!-- Node3 -->
<g id="node3" class="node"><title>Node3</title>
<g id="a_node3"><a xlink:href="main_8f90.html#af34ff6741d4ff9d2446ce73a4e460121" target="_top" xlink:title="test_general_umat">
<polygon fill="none" stroke="black" points="206,-0.5 206,-19.5 313,-19.5 313,-0.5 206,-0.5"/>
<text text-anchor="middle" x="259.5" y="-7.5" font-family="Helvetica,sans-Serif" font-size="10.00">test_general_umat</text>
</a>
</g>
</g>
<!-- Node2&#45;&gt;Node3 -->
<g id="edge2" class="edge"><title>Node2&#45;&gt;Node3</title>
<path fill="none" stroke="midnightblue" d="M180.028,-10C188.451,-10 197.301,-10 205.898,-10"/>
<polygon fill="midnightblue" stroke="midnightblue" points="180.011,-6.5001 170.011,-10 180.011,-13.5001 180.011,-6.5001"/>
</g>
</g>
</svg>
