<?xml version="1.0" encoding="UTF-8" standalone="no"?>
<!DOCTYPE svg PUBLIC "-//W3C//DTD SVG 1.1//EN"
 "http://www.w3.org/Graphics/SVG/1.1/DTD/svg11.dtd">
<!-- Generated by graphviz version 2.38.0 (20140413.2041)
 -->
<!-- Title: anisomat Pages: 1 -->
<svg width="291pt" height="28pt"
 viewBox="0.00 0.00 291.00 28.00" xmlns="http://www.w3.org/2000/svg" xmlns:xlink="http://www.w3.org/1999/xlink">
<g id="graph0" class="graph" transform="scale(1 1) rotate(0) translate(4 24)">
<title>anisomat</title>
<!-- Node1 -->
<g id="node1" class="node"><title>Node1</title>
<polygon fill="#bfbfbf" stroke="black" points="-2.84217e-14,-0.5 -2.84217e-14,-19.5 62,-19.5 62,-0.5 -2.84217e-14,-0.5"/>
<text text-anchor="middle" x="31" y="-7.5" font-family="Helvetica,sans-Serif" font-size="10.00">anisomat</text>
</g>
<!-- Node2 -->
<g id="node2" class="node"><title>Node2</title>
<g id="a_node2"><a xlink:href="__umat_8for.html#ade59a72c9e55c27de31535430ff6916e" target="_top" xlink:title=" Record of revisions: | Date Programmer Description of change | ==== ========== =====================...">
<polygon fill="none" stroke="black" points="98,-0.5 98,-19.5 140,-19.5 140,-0.5 98,-0.5"/>
<text text-anchor="middle" x="119" y="-7.5" font-family="Helvetica,sans-Serif" font-size="10.00">umat</text>
</a>
</g>
</g>
<!-- Node1&#45;&gt;Node2 -->
<g id="edge1" class="edge"><title>Node1&#45;&gt;Node2</title>
<path fill="none" stroke="midnightblue" d="M72.3012,-10C81.1459,-10 90.1435,-10 97.7893,-10"/>
<polygon fill="midnightblue" stroke="midnightblue" points="72.0787,-6.5001 62.0786,-10 72.0786,-13.5001 72.0787,-6.5001"/>
</g>
<!-- Node3 -->
<g id="node3" class="node"><title>Node3</title>
<g id="a_node3"><a xlink:href="main_8f90.html#af34ff6741d4ff9d2446ce73a4e460121" target="_top" xlink:title="test_general_umat">
<polygon fill="none" stroke="black" points="176,-0.5 176,-19.5 283,-19.5 283,-0.5 176,-0.5"/>
<text text-anchor="middle" x="229.5" y="-7.5" font-family="Helvetica,sans-Serif" font-size="10.00">test_general_umat</text>
</a>
</g>
</g>
<!-- Node2&#45;&gt;Node3 -->
<g id="edge2" class="edge"><title>Node2&#45;&gt;Node3</title>
<path fill="none" stroke="midnightblue" d="M150.393,-10C158.354,-10 167.171,-10 175.93,-10"/>
<polygon fill="midnightblue" stroke="midnightblue" points="150.154,-6.5001 140.154,-10 150.154,-13.5001 150.154,-6.5001"/>
</g>
</g>
</svg>
