<?xml version="1.0" encoding="UTF-8" standalone="no"?>
<!DOCTYPE svg PUBLIC "-//W3C//DTD SVG 1.1//EN"
 "http://www.w3.org/Graphics/SVG/1.1/DTD/svg11.dtd">
<!-- Generated by graphviz version 2.38.0 (20140413.2041)
 -->
<!-- Title: contraction42 Pages: 1 -->
<svg width="395pt" height="66pt"
 viewBox="0.00 0.00 395.00 66.00" xmlns="http://www.w3.org/2000/svg" xmlns:xlink="http://www.w3.org/1999/xlink">
<g id="graph0" class="graph" transform="scale(1 1) rotate(0) translate(4 62)">
<title>contraction42</title>
<!-- Node1 -->
<g id="node1" class="node"><title>Node1</title>
<polygon fill="#bfbfbf" stroke="black" points="0,-19.5 0,-38.5 83,-38.5 83,-19.5 0,-19.5"/>
<text text-anchor="middle" x="41.5" y="-26.5" font-family="Helvetica,sans-Serif" font-size="10.00">contraction42</text>
</g>
<!-- Node2 -->
<g id="node2" class="node"><title>Node2</title>
<g id="a_node2"><a xlink:href="pk2iso_8for.html#a525f2295f9830b95a6b5ce67d04ea1eb" target="_top" xlink:title="pk2iso">
<polygon fill="none" stroke="black" points="119,-38.5 119,-57.5 166,-57.5 166,-38.5 119,-38.5"/>
<text text-anchor="middle" x="142.5" y="-45.5" font-family="Helvetica,sans-Serif" font-size="10.00">pk2iso</text>
</a>
</g>
</g>
<!-- Node1&#45;&gt;Node2 -->
<g id="edge1" class="edge"><title>Node1&#45;&gt;Node2</title>
<path fill="none" stroke="midnightblue" d="M93.1446,-38.7197C102.12,-40.4422 111.045,-42.1551 118.739,-43.6317"/>
<polygon fill="midnightblue" stroke="midnightblue" points="93.5332,-35.2305 83.0527,-36.7828 92.2138,-42.105 93.5332,-35.2305"/>
</g>
<!-- Node5 -->
<g id="node5" class="node"><title>Node5</title>
<g id="a_node5"><a xlink:href="sigiso_8for.html#a922e87c5383e6f4d45517c30608b0bda" target="_top" xlink:title="sigiso">
<polygon fill="none" stroke="black" points="120.5,-0.5 120.5,-19.5 164.5,-19.5 164.5,-0.5 120.5,-0.5"/>
<text text-anchor="middle" x="142.5" y="-7.5" font-family="Helvetica,sans-Serif" font-size="10.00">sigiso</text>
</a>
</g>
</g>
<!-- Node1&#45;&gt;Node5 -->
<g id="edge4" class="edge"><title>Node1&#45;&gt;Node5</title>
<path fill="none" stroke="midnightblue" d="M93.0684,-19.295C102.72,-17.4427 112.317,-15.6008 120.391,-14.0512"/>
<polygon fill="midnightblue" stroke="midnightblue" points="92.2138,-15.895 83.0527,-21.2172 93.5332,-22.7695 92.2138,-15.895"/>
</g>
<!-- Node3 -->
<g id="node3" class="node"><title>Node3</title>
<g id="a_node3"><a xlink:href="__umat_8for.html#ade59a72c9e55c27de31535430ff6916e" target="_top" xlink:title=" Record of revisions: | Date Programmer Description of change | ==== ========== =====================...">
<polygon fill="none" stroke="black" points="202,-19.5 202,-38.5 244,-38.5 244,-19.5 202,-19.5"/>
<text text-anchor="middle" x="223" y="-26.5" font-family="Helvetica,sans-Serif" font-size="10.00">umat</text>
</a>
</g>
</g>
<!-- Node2&#45;&gt;Node3 -->
<g id="edge2" class="edge"><title>Node2&#45;&gt;Node3</title>
<path fill="none" stroke="midnightblue" d="M176.099,-40.1098C184.793,-38.0055 193.935,-35.7927 201.752,-33.9007"/>
<polygon fill="midnightblue" stroke="midnightblue" points="175.101,-36.7501 166.205,-42.5044 176.748,-43.5537 175.101,-36.7501"/>
</g>
<!-- Node4 -->
<g id="node4" class="node"><title>Node4</title>
<g id="a_node4"><a xlink:href="main_8f90.html#af34ff6741d4ff9d2446ce73a4e460121" target="_top" xlink:title="test_general_umat">
<polygon fill="none" stroke="black" points="280,-19.5 280,-38.5 387,-38.5 387,-19.5 280,-19.5"/>
<text text-anchor="middle" x="333.5" y="-26.5" font-family="Helvetica,sans-Serif" font-size="10.00">test_general_umat</text>
</a>
</g>
</g>
<!-- Node3&#45;&gt;Node4 -->
<g id="edge3" class="edge"><title>Node3&#45;&gt;Node4</title>
<path fill="none" stroke="midnightblue" d="M254.393,-29C262.354,-29 271.171,-29 279.93,-29"/>
<polygon fill="midnightblue" stroke="midnightblue" points="254.154,-25.5001 244.154,-29 254.154,-32.5001 254.154,-25.5001"/>
</g>
<!-- Node5&#45;&gt;Node3 -->
<g id="edge5" class="edge"><title>Node5&#45;&gt;Node3</title>
<path fill="none" stroke="midnightblue" d="M174.275,-17.4488C183.59,-19.7032 193.573,-22.1195 201.988,-24.1563"/>
<polygon fill="midnightblue" stroke="midnightblue" points="175.079,-14.0424 164.537,-15.0917 173.433,-20.846 175.079,-14.0424"/>
</g>
</g>
</svg>
