<?xml version="1.0" encoding="UTF-8" standalone="no"?>
<!DOCTYPE svg PUBLIC "-//W3C//DTD SVG 1.1//EN"
 "http://www.w3.org/Graphics/SVG/1.1/DTD/svg11.dtd">
<!-- Generated by graphviz version 2.38.0 (20140413.2041)
 -->
<!-- Title: contraction44 Pages: 1 -->
<svg width="398pt" height="66pt"
 viewBox="0.00 0.00 398.00 66.00" xmlns="http://www.w3.org/2000/svg" xmlns:xlink="http://www.w3.org/1999/xlink">
<g id="graph0" class="graph" transform="scale(1 1) rotate(0) translate(4 62)">
<title>contraction44</title>
<!-- Node1 -->
<g id="node1" class="node"><title>Node1</title>
<polygon fill="#bfbfbf" stroke="black" points="0,-19.5 0,-38.5 83,-38.5 83,-19.5 0,-19.5"/>
<text text-anchor="middle" x="41.5" y="-26.5" font-family="Helvetica,sans-Serif" font-size="10.00">contraction44</text>
</g>
<!-- Node2 -->
<g id="node2" class="node"><title>Node2</title>
<g id="a_node2"><a xlink:href="metiso_8for.html#adfb372f50c7b7ab0bbc5abad87205763" target="_top" xlink:title="metiso">
<polygon fill="none" stroke="black" points="119,-38.5 119,-57.5 169,-57.5 169,-38.5 119,-38.5"/>
<text text-anchor="middle" x="144" y="-45.5" font-family="Helvetica,sans-Serif" font-size="10.00">metiso</text>
</a>
</g>
</g>
<!-- Node1&#45;&gt;Node2 -->
<g id="edge1" class="edge"><title>Node1&#45;&gt;Node2</title>
<path fill="none" stroke="midnightblue" d="M93.1222,-38.5704C102.057,-40.2596 110.977,-41.9459 118.751,-43.4156"/>
<polygon fill="midnightblue" stroke="midnightblue" points="93.5637,-35.0919 83.0875,-36.6733 92.2633,-41.9701 93.5637,-35.0919"/>
</g>
<!-- Node5 -->
<g id="node5" class="node"><title>Node5</title>
<g id="a_node5"><a xlink:href="setiso_8for.html#a684bfc6ac044f6740b76347b3ff89a24" target="_top" xlink:title="setiso">
<polygon fill="none" stroke="black" points="121.5,-0.5 121.5,-19.5 166.5,-19.5 166.5,-0.5 121.5,-0.5"/>
<text text-anchor="middle" x="144" y="-7.5" font-family="Helvetica,sans-Serif" font-size="10.00">setiso</text>
</a>
</g>
</g>
<!-- Node1&#45;&gt;Node5 -->
<g id="edge4" class="edge"><title>Node1&#45;&gt;Node5</title>
<path fill="none" stroke="midnightblue" d="M93.0053,-19.4517C102.977,-17.5666 112.935,-15.6839 121.309,-14.1008"/>
<polygon fill="midnightblue" stroke="midnightblue" points="92.2633,-16.0299 83.0875,-21.3267 93.5637,-22.9081 92.2633,-16.0299"/>
</g>
<!-- Node3 -->
<g id="node3" class="node"><title>Node3</title>
<g id="a_node3"><a xlink:href="__umat_8for.html#ade59a72c9e55c27de31535430ff6916e" target="_top" xlink:title=" Record of revisions: | Date Programmer Description of change | ==== ========== =====================...">
<polygon fill="none" stroke="black" points="205,-19.5 205,-38.5 247,-38.5 247,-19.5 205,-19.5"/>
<text text-anchor="middle" x="226" y="-26.5" font-family="Helvetica,sans-Serif" font-size="10.00">umat</text>
</a>
</g>
</g>
<!-- Node2&#45;&gt;Node3 -->
<g id="edge2" class="edge"><title>Node2&#45;&gt;Node3</title>
<path fill="none" stroke="midnightblue" d="M178.736,-39.9876C187.601,-37.8822 196.887,-35.6769 204.793,-33.7991"/>
<polygon fill="midnightblue" stroke="midnightblue" points="177.923,-36.5833 169.003,-42.2994 179.541,-43.3939 177.923,-36.5833"/>
</g>
<!-- Node4 -->
<g id="node4" class="node"><title>Node4</title>
<g id="a_node4"><a xlink:href="main_8f90.html#af34ff6741d4ff9d2446ce73a4e460121" target="_top" xlink:title="test_general_umat">
<polygon fill="none" stroke="black" points="283,-19.5 283,-38.5 390,-38.5 390,-19.5 283,-19.5"/>
<text text-anchor="middle" x="336.5" y="-26.5" font-family="Helvetica,sans-Serif" font-size="10.00">test_general_umat</text>
</a>
</g>
</g>
<!-- Node3&#45;&gt;Node4 -->
<g id="edge3" class="edge"><title>Node3&#45;&gt;Node4</title>
<path fill="none" stroke="midnightblue" d="M257.393,-29C265.354,-29 274.171,-29 282.93,-29"/>
<polygon fill="midnightblue" stroke="midnightblue" points="257.154,-25.5001 247.154,-29 257.154,-32.5001 257.154,-25.5001"/>
</g>
<!-- Node5&#45;&gt;Node3 -->
<g id="edge5" class="edge"><title>Node5&#45;&gt;Node3</title>
<path fill="none" stroke="midnightblue" d="M176.762,-17.5434C186.216,-19.7889 196.313,-22.1868 204.813,-24.2055"/>
<polygon fill="midnightblue" stroke="midnightblue" points="177.398,-14.0974 166.86,-15.1918 175.781,-20.9079 177.398,-14.0974"/>
</g>
</g>
</svg>
