<?xml version="1.0" encoding="UTF-8" standalone="no"?>
<!DOCTYPE svg PUBLIC "-//W3C//DTD SVG 1.1//EN"
 "http://www.w3.org/Graphics/SVG/1.1/DTD/svg11.dtd">
<!-- Generated by graphviz version 2.38.0 (20140413.2041)
 -->
<!-- Title: test_general_umat Pages: 1 -->
<svg width="557pt" height="1358pt"
 viewBox="0.00 0.00 557.00 1358.00" xmlns="http://www.w3.org/2000/svg" xmlns:xlink="http://www.w3.org/1999/xlink">
<g id="graph0" class="graph" transform="scale(1 1) rotate(0) translate(4 1354)">
<title>test_general_umat</title>
<!-- Node1 -->
<g id="node1" class="node"><title>Node1</title>
<polygon fill="#bfbfbf" stroke="black" points="0,-845.5 0,-864.5 107,-864.5 107,-845.5 0,-845.5"/>
<text text-anchor="middle" x="53.5" y="-852.5" font-family="Helvetica,sans-Serif" font-size="10.00">test_general_umat</text>
</g>
<!-- Node2 -->
<g id="node2" class="node"><title>Node2</title>
<g id="a_node2"><a xlink:href="uexternaldb_8for.html#af82fa72f6d0f9acdbf18f2de5016962b" target="_top" xlink:title="uexternaldb">
<polygon fill="none" stroke="black" points="143,-1026.5 143,-1045.5 217,-1045.5 217,-1026.5 143,-1026.5"/>
<text text-anchor="middle" x="180" y="-1033.5" font-family="Helvetica,sans-Serif" font-size="10.00">uexternaldb</text>
</a>
</g>
</g>
<!-- Node1&#45;&gt;Node2 -->
<g id="edge1" class="edge"><title>Node1&#45;&gt;Node2</title>
<path fill="none" stroke="midnightblue" d="M61.1937,-864.731C81.1221,-893.704 140.297,-979.733 166.395,-1017.67"/>
<polygon fill="midnightblue" stroke="midnightblue" points="163.722,-1019.96 172.273,-1026.22 169.49,-1016 163.722,-1019.96"/>
</g>
<!-- Node4 -->
<g id="node4" class="node"><title>Node4</title>
<g id="a_node4"><a xlink:href="__umat_8for.html#ade59a72c9e55c27de31535430ff6916e" target="_top" xlink:title=" Record of revisions: | Date Programmer Description of change | ==== ========== =====================...">
<polygon fill="none" stroke="black" points="159,-665.5 159,-684.5 201,-684.5 201,-665.5 159,-665.5"/>
<text text-anchor="middle" x="180" y="-672.5" font-family="Helvetica,sans-Serif" font-size="10.00">umat</text>
</a>
</g>
</g>
<!-- Node1&#45;&gt;Node4 -->
<g id="edge3" class="edge"><title>Node1&#45;&gt;Node4</title>
<path fill="none" stroke="midnightblue" d="M61.1937,-845.322C81.1221,-816.51 140.297,-730.956 166.395,-693.224"/>
<polygon fill="midnightblue" stroke="midnightblue" points="169.463,-694.941 172.273,-684.725 163.706,-690.959 169.463,-694.941"/>
</g>
<!-- Node3 -->
<g id="node3" class="node"><title>Node3</title>
<g id="a_node3"><a xlink:href="_g_e_t_o_u_t_d_i_r_8for.html#a76d92cb7acf0fa97519e0cc1c71cf219" target="_top" xlink:title="getoutdir">
<polygon fill="none" stroke="black" points="271.5,-1330.5 271.5,-1349.5 331.5,-1349.5 331.5,-1330.5 271.5,-1330.5"/>
<text text-anchor="middle" x="301.5" y="-1337.5" font-family="Helvetica,sans-Serif" font-size="10.00">getoutdir</text>
</a>
</g>
</g>
<!-- Node2&#45;&gt;Node3 -->
<g id="edge2" class="edge"><title>Node2&#45;&gt;Node3</title>
<path fill="none" stroke="midnightblue" d="M180.505,-1045.77C179.033,-1085.39 178.727,-1236.12 253,-1321 255.623,-1324 258.784,-1326.53 262.215,-1328.66"/>
<polygon fill="midnightblue" stroke="midnightblue" points="260.644,-1331.79 271.146,-1333.2 263.813,-1325.55 260.644,-1331.79"/>
</g>
<!-- Node5 -->
<g id="node5" class="node"><title>Node5</title>
<g id="a_node5"><a xlink:href="identity__tensors_8for.html#a03fd2442d72065c8a2c3cfb10467ceb6" target="_top" xlink:title="onem">
<polygon fill="none" stroke="black" points="279.5,-1292.5 279.5,-1311.5 323.5,-1311.5 323.5,-1292.5 279.5,-1292.5"/>
<text text-anchor="middle" x="301.5" y="-1299.5" font-family="Helvetica,sans-Serif" font-size="10.00">onem</text>
</a>
</g>
</g>
<!-- Node4&#45;&gt;Node5 -->
<g id="edge4" class="edge"><title>Node4&#45;&gt;Node5</title>
<path fill="none" stroke="midnightblue" d="M182.023,-684.829C190.095,-762.198 243.441,-1270.53 253,-1283 257.114,-1288.37 262.981,-1292.22 269.195,-1294.99"/>
<polygon fill="midnightblue" stroke="midnightblue" points="268.45,-1298.44 279.044,-1298.5 270.803,-1291.85 268.45,-1298.44"/>
</g>
<!-- Node6 -->
<g id="node6" class="node"><title>Node6</title>
<g id="a_node6"><a xlink:href="initialize_8for.html#afb6af130004528dffe465dd6b0c53894" target="_top" xlink:title="initialize">
<polygon fill="none" stroke="black" points="274,-1254.5 274,-1273.5 329,-1273.5 329,-1254.5 274,-1254.5"/>
<text text-anchor="middle" x="301.5" y="-1261.5" font-family="Helvetica,sans-Serif" font-size="10.00">initialize</text>
</a>
</g>
</g>
<!-- Node4&#45;&gt;Node6 -->
<g id="edge5" class="edge"><title>Node4&#45;&gt;Node6</title>
<path fill="none" stroke="midnightblue" d="M181.966,-684.933C189.194,-758.913 235.045,-1221.77 253,-1245 256.031,-1248.92 259.999,-1252.04 264.35,-1254.51"/>
<polygon fill="midnightblue" stroke="midnightblue" points="263.092,-1257.78 273.643,-1258.74 265.991,-1251.41 263.092,-1257.78"/>
</g>
<!-- Node7 -->
<g id="node7" class="node"><title>Node7</title>
<g id="a_node7"><a xlink:href="sdvread_8for.html#aac71ab9ddec68cb5a041a5bfe955190f" target="_top" xlink:title="sdvread">
<polygon fill="none" stroke="black" points="274,-1216.5 274,-1235.5 329,-1235.5 329,-1216.5 274,-1216.5"/>
<text text-anchor="middle" x="301.5" y="-1223.5" font-family="Helvetica,sans-Serif" font-size="10.00">sdvread</text>
</a>
</g>
</g>
<!-- Node4&#45;&gt;Node7 -->
<g id="edge6" class="edge"><title>Node4&#45;&gt;Node7</title>
<path fill="none" stroke="midnightblue" d="M182.034,-684.717C189.565,-755.16 236.162,-1185.41 253,-1207 256.049,-1210.91 260.026,-1214.02 264.382,-1216.49"/>
<polygon fill="midnightblue" stroke="midnightblue" points="263.126,-1219.76 273.678,-1220.71 266.023,-1213.39 263.126,-1219.76"/>
</g>
<!-- Node8 -->
<g id="node8" class="node"><title>Node8</title>
<g id="a_node8"><a xlink:href="fslip_8for.html#ad2335e079bf9907ca25a55c19e01c333" target="_top" xlink:title="fslip">
<polygon fill="none" stroke="black" points="284,-1178.5 284,-1197.5 319,-1197.5 319,-1178.5 284,-1178.5"/>
<text text-anchor="middle" x="301.5" y="-1185.5" font-family="Helvetica,sans-Serif" font-size="10.00">fslip</text>
</a>
</g>
</g>
<!-- Node4&#45;&gt;Node8 -->
<g id="edge7" class="edge"><title>Node4&#45;&gt;Node8</title>
<path fill="none" stroke="midnightblue" d="M181.892,-684.727C187.951,-750.037 223.709,-1123.36 253,-1164 258.224,-1171.25 266.277,-1176.44 274.278,-1180.1"/>
<polygon fill="midnightblue" stroke="midnightblue" points="273.229,-1183.45 283.817,-1183.84 275.784,-1176.94 273.229,-1183.45"/>
</g>
<!-- Node9 -->
<g id="node9" class="node"><title>Node9</title>
<g id="a_node9"><a xlink:href="minverse3d_8for.html#a57fcae0e55c917727e5a5e824f445f4e" target="_top" xlink:title="matinv3d">
<polygon fill="none" stroke="black" points="396.5,-1045.5 396.5,-1064.5 458.5,-1064.5 458.5,-1045.5 396.5,-1045.5"/>
<text text-anchor="middle" x="427.5" y="-1052.5" font-family="Helvetica,sans-Serif" font-size="10.00">matinv3d</text>
</a>
</g>
</g>
<!-- Node4&#45;&gt;Node9 -->
<g id="edge8" class="edge"><title>Node4&#45;&gt;Node9</title>
<path fill="none" stroke="midnightblue" d="M181.78,-684.647C186.979,-747.807 217.507,-1100.67 253,-1131 285.775,-1159.01 310.144,-1147.43 350,-1131 378.28,-1119.34 401.624,-1091.6 414.813,-1073.06"/>
<polygon fill="midnightblue" stroke="midnightblue" points="417.859,-1074.81 420.603,-1064.57 412.076,-1070.86 417.859,-1074.81"/>
</g>
<!-- Node10 -->
<g id="node10" class="node"><title>Node10</title>
<g id="a_node10"><a xlink:href="deformation_8for.html#ab2dc1e77c2638cdfcf26b771842db2b7" target="_top" xlink:title="deformation">
<polygon fill="none" stroke="black" points="264,-874.5 264,-893.5 339,-893.5 339,-874.5 264,-874.5"/>
<text text-anchor="middle" x="301.5" y="-881.5" font-family="Helvetica,sans-Serif" font-size="10.00">deformation</text>
</a>
</g>
</g>
<!-- Node4&#45;&gt;Node10 -->
<g id="edge9" class="edge"><title>Node4&#45;&gt;Node10</title>
<path fill="none" stroke="midnightblue" d="M181.956,-684.743C185.472,-715.457 200.359,-811.387 253,-865 254.4,-866.426 255.921,-867.748 257.531,-868.973"/>
<polygon fill="midnightblue" stroke="midnightblue" points="255.827,-872.035 266.17,-874.329 259.515,-866.085 255.827,-872.035"/>
</g>
<!-- Node11 -->
<g id="node11" class="node"><title>Node11</title>
<g id="a_node11"><a xlink:href="fibdir_8for.html#ad4f956d16c26f610a5b52ef9c9da3cf0" target="_top" xlink:title="fibdir">
<polygon fill="none" stroke="black" points="281.5,-836.5 281.5,-855.5 321.5,-855.5 321.5,-836.5 281.5,-836.5"/>
<text text-anchor="middle" x="301.5" y="-843.5" font-family="Helvetica,sans-Serif" font-size="10.00">fibdir</text>
</a>
</g>
</g>
<!-- Node4&#45;&gt;Node11 -->
<g id="edge10" class="edge"><title>Node4&#45;&gt;Node11</title>
<path fill="none" stroke="midnightblue" d="M182.977,-684.64C188.873,-711.057 208.746,-785.402 253,-827 258.218,-831.905 264.86,-835.604 271.513,-838.372"/>
<polygon fill="midnightblue" stroke="midnightblue" points="270.507,-841.729 281.102,-841.791 272.858,-835.136 270.507,-841.729"/>
</g>
<!-- Node12 -->
<g id="node12" class="node"><title>Node12</title>
<g id="a_node12"><a xlink:href="invariants_8for.html#a2c2c5ef734d284a0f4a38320eb18e267" target="_top" xlink:title="invariants">
<polygon fill="none" stroke="black" points="270,-798.5 270,-817.5 333,-817.5 333,-798.5 270,-798.5"/>
<text text-anchor="middle" x="301.5" y="-805.5" font-family="Helvetica,sans-Serif" font-size="10.00">invariants</text>
</a>
</g>
</g>
<!-- Node4&#45;&gt;Node12 -->
<g id="edge11" class="edge"><title>Node4&#45;&gt;Node12</title>
<path fill="none" stroke="midnightblue" d="M184.662,-684.68C193.31,-706.319 217.012,-759.055 253,-789 255.381,-790.981 257.995,-792.775 260.734,-794.396"/>
<polygon fill="midnightblue" stroke="midnightblue" points="259.278,-797.582 269.777,-799.002 262.455,-791.345 259.278,-797.582"/>
</g>
<!-- Node13 -->
<g id="node13" class="node"><title>Node13</title>
<g id="a_node13"><a xlink:href="pinvariants_8for.html#aaaa7b07924c642fe785a9a8dc96e885e" target="_top" xlink:title="pinvariants">
<polygon fill="none" stroke="black" points="267,-760.5 267,-779.5 336,-779.5 336,-760.5 267,-760.5"/>
<text text-anchor="middle" x="301.5" y="-767.5" font-family="Helvetica,sans-Serif" font-size="10.00">pinvariants</text>
</a>
</g>
</g>
<!-- Node4&#45;&gt;Node13 -->
<g id="edge12" class="edge"><title>Node4&#45;&gt;Node13</title>
<path fill="none" stroke="midnightblue" d="M187.932,-684.68C199.696,-700.495 225.031,-732.01 253,-751 255.719,-752.846 258.644,-754.555 261.659,-756.129"/>
<polygon fill="midnightblue" stroke="midnightblue" points="260.317,-759.365 270.857,-760.443 263.29,-753.028 260.317,-759.365"/>
</g>
<!-- Node14 -->
<g id="node14" class="node"><title>Node14</title>
<g id="a_node14"><a xlink:href="stretch_8for.html#a35c9d800d4cdf46135fd6fe61edb5fa2" target="_top" xlink:title="stretch">
<polygon fill="none" stroke="black" points="276.5,-722.5 276.5,-741.5 326.5,-741.5 326.5,-722.5 276.5,-722.5"/>
<text text-anchor="middle" x="301.5" y="-729.5" font-family="Helvetica,sans-Serif" font-size="10.00">stretch</text>
</a>
</g>
</g>
<!-- Node4&#45;&gt;Node14 -->
<g id="edge13" class="edge"><title>Node4&#45;&gt;Node14</title>
<path fill="none" stroke="midnightblue" d="M197.912,-684.574C212.344,-692.586 233.756,-704.103 253,-713 257.404,-715.036 262.091,-717.068 266.74,-719.006"/>
<polygon fill="midnightblue" stroke="midnightblue" points="265.544,-722.298 276.126,-722.82 268.18,-715.813 265.544,-722.298"/>
</g>
<!-- Node18 -->
<g id="node18" class="node"><title>Node18</title>
<g id="a_node18"><a xlink:href="rotation_8for.html#a75b4b6ad5b953d7b49af0362930cac42" target="_top" xlink:title="rotation">
<polygon fill="none" stroke="black" points="274.5,-1102.5 274.5,-1121.5 328.5,-1121.5 328.5,-1102.5 274.5,-1102.5"/>
<text text-anchor="middle" x="301.5" y="-1109.5" font-family="Helvetica,sans-Serif" font-size="10.00">rotation</text>
</a>
</g>
</g>
<!-- Node4&#45;&gt;Node18 -->
<g id="edge17" class="edge"><title>Node4&#45;&gt;Node18</title>
<path fill="none" stroke="midnightblue" d="M181.412,-684.652C183.992,-740.984 199.607,-1027.03 253,-1093 256.269,-1097.04 260.524,-1100.22 265.144,-1102.73"/>
<polygon fill="midnightblue" stroke="midnightblue" points="263.753,-1105.95 274.316,-1106.78 266.578,-1099.54 263.753,-1105.95"/>
</g>
<!-- Node19 -->
<g id="node19" class="node"><title>Node19</title>
<g id="a_node19"><a xlink:href="proj__eulerian_8for.html#a6c4553cadb8482a8d0484d6d8ff5da18" target="_top" xlink:title="projeul">
<polygon fill="none" stroke="black" points="277,-684.5 277,-703.5 326,-703.5 326,-684.5 277,-684.5"/>
<text text-anchor="middle" x="301.5" y="-691.5" font-family="Helvetica,sans-Serif" font-size="10.00">projeul</text>
</a>
</g>
</g>
<!-- Node4&#45;&gt;Node19 -->
<g id="edge19" class="edge"><title>Node4&#45;&gt;Node19</title>
<path fill="none" stroke="midnightblue" d="M201.002,-678.18C218.931,-681.031 245.599,-685.271 266.814,-688.644"/>
<polygon fill="midnightblue" stroke="midnightblue" points="266.303,-692.107 276.729,-690.22 267.402,-685.194 266.303,-692.107"/>
</g>
<!-- Node20 -->
<g id="node20" class="node"><title>Node20</title>
<g id="a_node20"><a xlink:href="proj__lagrangian_8for.html#ad4a855453319c895aa447c6517605e4a" target="_top" xlink:title="projlag">
<polygon fill="none" stroke="black" points="277,-1064.5 277,-1083.5 326,-1083.5 326,-1064.5 277,-1064.5"/>
<text text-anchor="middle" x="301.5" y="-1071.5" font-family="Helvetica,sans-Serif" font-size="10.00">projlag</text>
</a>
</g>
</g>
<!-- Node4&#45;&gt;Node20 -->
<g id="edge20" class="edge"><title>Node4&#45;&gt;Node20</title>
<path fill="none" stroke="midnightblue" d="M181.603,-684.809C185.079,-738.409 204.135,-995.645 253,-1055 256.833,-1059.66 261.975,-1063.18 267.462,-1065.84"/>
<polygon fill="midnightblue" stroke="midnightblue" points="266.264,-1069.13 276.85,-1069.56 268.842,-1062.62 266.264,-1069.13"/>
</g>
<!-- Node21 -->
<g id="node21" class="node"><title>Node21</title>
<g id="a_node21"><a xlink:href="vol_8for.html#abb3cf83c99202d92dfb8df710243dc63" target="_top" xlink:title="vol">
<polygon fill="none" stroke="black" points="286.5,-646.5 286.5,-665.5 316.5,-665.5 316.5,-646.5 286.5,-646.5"/>
<text text-anchor="middle" x="301.5" y="-653.5" font-family="Helvetica,sans-Serif" font-size="10.00">vol</text>
</a>
</g>
</g>
<!-- Node4&#45;&gt;Node21 -->
<g id="edge22" class="edge"><title>Node4&#45;&gt;Node21</title>
<path fill="none" stroke="midnightblue" d="M201.002,-671.82C221.786,-668.515 254.313,-663.343 276.477,-659.82"/>
<polygon fill="midnightblue" stroke="midnightblue" points="277.101,-663.264 286.428,-658.237 276.002,-656.351 277.101,-663.264"/>
</g>
<!-- Node22 -->
<g id="node22" class="node"><title>Node22</title>
<g id="a_node22"><a xlink:href="isomat_8for.html#a89e735191fd44d7e7535605f29e52600" target="_top" xlink:title="isomat">
<polygon fill="none" stroke="black" points="276.5,-608.5 276.5,-627.5 326.5,-627.5 326.5,-608.5 276.5,-608.5"/>
<text text-anchor="middle" x="301.5" y="-615.5" font-family="Helvetica,sans-Serif" font-size="10.00">isomat</text>
</a>
</g>
</g>
<!-- Node4&#45;&gt;Node22 -->
<g id="edge23" class="edge"><title>Node4&#45;&gt;Node22</title>
<path fill="none" stroke="midnightblue" d="M197.912,-665.426C212.344,-657.414 233.756,-645.897 253,-637 257.404,-634.964 262.091,-632.932 266.74,-630.994"/>
<polygon fill="midnightblue" stroke="midnightblue" points="268.18,-634.187 276.126,-627.18 265.544,-627.702 268.18,-634.187"/>
</g>
<!-- Node23 -->
<g id="node23" class="node"><title>Node23</title>
<g id="a_node23"><a xlink:href="anisomat_8for.html#afa561bbd538fbcb594d34258412f5db5" target="_top" xlink:title="anisomat">
<polygon fill="none" stroke="black" points="270.5,-570.5 270.5,-589.5 332.5,-589.5 332.5,-570.5 270.5,-570.5"/>
<text text-anchor="middle" x="301.5" y="-577.5" font-family="Helvetica,sans-Serif" font-size="10.00">anisomat</text>
</a>
</g>
</g>
<!-- Node4&#45;&gt;Node23 -->
<g id="edge24" class="edge"><title>Node4&#45;&gt;Node23</title>
<path fill="none" stroke="midnightblue" d="M187.932,-665.32C199.696,-649.505 225.031,-617.99 253,-599 255.719,-597.154 258.644,-595.445 261.659,-593.871"/>
<polygon fill="midnightblue" stroke="midnightblue" points="263.29,-596.972 270.857,-589.557 260.317,-590.635 263.29,-596.972"/>
</g>
<!-- Node24 -->
<g id="node24" class="node"><title>Node24</title>
<g id="a_node24"><a xlink:href="pk2isomatfic_8for.html#ade33b1396cbfc5dbb036ee5f6048e9a6" target="_top" xlink:title="pk2isomatfic">
<polygon fill="none" stroke="black" points="263,-532.5 263,-551.5 340,-551.5 340,-532.5 263,-532.5"/>
<text text-anchor="middle" x="301.5" y="-539.5" font-family="Helvetica,sans-Serif" font-size="10.00">pk2isomatfic</text>
</a>
</g>
</g>
<!-- Node4&#45;&gt;Node24 -->
<g id="edge25" class="edge"><title>Node4&#45;&gt;Node24</title>
<path fill="none" stroke="midnightblue" d="M184.662,-665.32C193.31,-643.681 217.012,-590.945 253,-561 254.971,-559.36 257.102,-557.848 259.332,-556.456"/>
<polygon fill="midnightblue" stroke="midnightblue" points="261.121,-559.468 268.29,-551.667 257.821,-553.295 261.121,-559.468"/>
</g>
<!-- Node25 -->
<g id="node25" class="node"><title>Node25</title>
<g id="a_node25"><a xlink:href="sigisomatfic_8for.html#a5dc6369258e0cde9daee2a9ccec7972a" target="_top" xlink:title="sigisomatfic">
<polygon fill="none" stroke="black" points="264.5,-456.5 264.5,-475.5 338.5,-475.5 338.5,-456.5 264.5,-456.5"/>
<text text-anchor="middle" x="301.5" y="-463.5" font-family="Helvetica,sans-Serif" font-size="10.00">sigisomatfic</text>
</a>
</g>
</g>
<!-- Node4&#45;&gt;Node25 -->
<g id="edge26" class="edge"><title>Node4&#45;&gt;Node25</title>
<path fill="none" stroke="midnightblue" d="M182.298,-665.278C186.742,-635.469 203.892,-544.102 253,-490 256.245,-486.425 260.144,-483.31 264.294,-480.616"/>
<polygon fill="midnightblue" stroke="midnightblue" points="266.063,-483.637 273.04,-475.664 262.614,-477.545 266.063,-483.637"/>
</g>
<!-- Node26 -->
<g id="node26" class="node"><title>Node26</title>
<g id="a_node26"><a xlink:href="push2_8for.html#acb1875b4820cb25bf65814b33f47cf99" target="_top" xlink:title="push2">
<polygon fill="none" stroke="black" points="404.5,-475.5 404.5,-494.5 450.5,-494.5 450.5,-475.5 404.5,-475.5"/>
<text text-anchor="middle" x="427.5" y="-482.5" font-family="Helvetica,sans-Serif" font-size="10.00">push2</text>
</a>
</g>
</g>
<!-- Node4&#45;&gt;Node26 -->
<g id="edge32" class="edge"><title>Node4&#45;&gt;Node26</title>
<path fill="none" stroke="midnightblue" d="M182.56,-665.353C187.474,-638.262 205.242,-560.994 253,-523 293.741,-490.589 356.208,-484.4 394.024,-483.944"/>
<polygon fill="midnightblue" stroke="midnightblue" points="394.453,-487.444 404.457,-483.956 394.461,-480.444 394.453,-487.444"/>
</g>
<!-- Node27 -->
<g id="node27" class="node"><title>Node27</title>
<g id="a_node27"><a xlink:href="cmatisomatfic_8for.html#aefae10fd7e02adb2b87c090a42bb1baa" target="_top" xlink:title="cmatisomatfic">
<polygon fill="none" stroke="black" points="259,-418.5 259,-437.5 344,-437.5 344,-418.5 259,-418.5"/>
<text text-anchor="middle" x="301.5" y="-425.5" font-family="Helvetica,sans-Serif" font-size="10.00">cmatisomatfic</text>
</a>
</g>
</g>
<!-- Node4&#45;&gt;Node27 -->
<g id="edge28" class="edge"><title>Node4&#45;&gt;Node27</title>
<path fill="none" stroke="midnightblue" d="M181.238,-665.335C182.597,-630.94 191.726,-513.026 253,-447 254.205,-445.702 255.51,-444.491 256.892,-443.361"/>
<polygon fill="midnightblue" stroke="midnightblue" points="259.04,-446.139 265.498,-437.74 255.212,-440.278 259.04,-446.139"/>
</g>
<!-- Node28 -->
<g id="node28" class="node"><title>Node28</title>
<g id="a_node28"><a xlink:href="cisomatfic_8for.html#a9bae2c893581a5ef032c8e109eb1ea0c" target="_top" xlink:title="csisomatfic">
<polygon fill="none" stroke="black" points="266,-342.5 266,-361.5 337,-361.5 337,-342.5 266,-342.5"/>
<text text-anchor="middle" x="301.5" y="-349.5" font-family="Helvetica,sans-Serif" font-size="10.00">csisomatfic</text>
</a>
</g>
</g>
<!-- Node4&#45;&gt;Node28 -->
<g id="edge29" class="edge"><title>Node4&#45;&gt;Node28</title>
<path fill="none" stroke="midnightblue" d="M180.579,-665.497C179.312,-625.539 179.427,-468.937 253,-376 255.71,-372.577 259.037,-369.6 262.662,-367.021"/>
<polygon fill="midnightblue" stroke="midnightblue" points="264.742,-369.855 271.51,-361.703 261.136,-363.855 264.742,-369.855"/>
</g>
<!-- Node29 -->
<g id="node29" class="node"><title>Node29</title>
<g id="a_node29"><a xlink:href="push4_8for.html#a8eaa214e9279f4ea3fa90ff3c0e85f31" target="_top" xlink:title="push4">
<polygon fill="none" stroke="black" points="404.5,-361.5 404.5,-380.5 450.5,-380.5 450.5,-361.5 404.5,-361.5"/>
<text text-anchor="middle" x="427.5" y="-368.5" font-family="Helvetica,sans-Serif" font-size="10.00">push4</text>
</a>
</g>
</g>
<!-- Node4&#45;&gt;Node29 -->
<g id="edge35" class="edge"><title>Node4&#45;&gt;Node29</title>
<path fill="none" stroke="midnightblue" d="M182.275,-665.303C188.175,-621.895 214.199,-445.955 253,-409 273,-389.952 349.966,-378.955 394.38,-374.068"/>
<polygon fill="midnightblue" stroke="midnightblue" points="394.812,-377.542 404.388,-373.01 394.076,-370.581 394.812,-377.542"/>
</g>
<!-- Node30 -->
<g id="node30" class="node"><title>Node30</title>
<g id="a_node30"><a xlink:href="pk2anisomatfic_8for.html#a73340e181ab9536885f6db31839ba564" target="_top" xlink:title="pk2anisomatfic">
<polygon fill="none" stroke="black" points="257,-304.5 257,-323.5 346,-323.5 346,-304.5 257,-304.5"/>
<text text-anchor="middle" x="301.5" y="-311.5" font-family="Helvetica,sans-Serif" font-size="10.00">pk2anisomatfic</text>
</a>
</g>
</g>
<!-- Node4&#45;&gt;Node30 -->
<g id="edge31" class="edge"><title>Node4&#45;&gt;Node30</title>
<path fill="none" stroke="midnightblue" d="M181.827,-665.192C186.252,-614.855 208.595,-385.838 253,-333 254,-331.81 255.085,-330.694 256.239,-329.647"/>
<polygon fill="midnightblue" stroke="midnightblue" points="258.525,-332.319 264.684,-323.698 254.493,-326.596 258.525,-332.319"/>
</g>
<!-- Node31 -->
<g id="node31" class="node"><title>Node31</title>
<g id="a_node31"><a xlink:href="cmatanisomatfic_8for.html#ac0fc260602607e54e92d94a58fb2594d" target="_top" xlink:title="cmatanisomatfic">
<polygon fill="none" stroke="black" points="253,-266.5 253,-285.5 350,-285.5 350,-266.5 253,-266.5"/>
<text text-anchor="middle" x="301.5" y="-273.5" font-family="Helvetica,sans-Serif" font-size="10.00">cmatanisomatfic</text>
</a>
</g>
</g>
<!-- Node4&#45;&gt;Node31 -->
<g id="edge33" class="edge"><title>Node4&#45;&gt;Node31</title>
<path fill="none" stroke="midnightblue" d="M181.603,-665.191C185.079,-611.591 204.135,-354.355 253,-295 253.988,-293.8 255.063,-292.675 256.208,-291.621"/>
<polygon fill="midnightblue" stroke="midnightblue" points="258.495,-294.289 264.613,-285.639 254.436,-288.586 258.495,-294.289"/>
</g>
<!-- Node33 -->
<g id="node33" class="node"><title>Node33</title>
<g id="a_node33"><a xlink:href="pk2vol_8for.html#ac9029238abb007c001f636e497ee0ac7" target="_top" xlink:title="pk2vol">
<polygon fill="none" stroke="black" points="278,-1026.5 278,-1045.5 325,-1045.5 325,-1026.5 278,-1026.5"/>
<text text-anchor="middle" x="301.5" y="-1033.5" font-family="Helvetica,sans-Serif" font-size="10.00">pk2vol</text>
</a>
</g>
</g>
<!-- Node4&#45;&gt;Node33 -->
<g id="edge36" class="edge"><title>Node4&#45;&gt;Node33</title>
<path fill="none" stroke="midnightblue" d="M181.827,-684.808C186.252,-735.145 208.595,-964.162 253,-1017 257.027,-1021.79 262.436,-1025.38 268.161,-1028.08"/>
<polygon fill="midnightblue" stroke="midnightblue" points="267.316,-1031.5 277.907,-1031.81 269.819,-1024.96 267.316,-1031.5"/>
</g>
<!-- Node34 -->
<g id="node34" class="node"><title>Node34</title>
<g id="a_node34"><a xlink:href="sigvol_8for.html#a8d289ee29f4702d72fb71cb2d89c6f12" target="_top" xlink:title="sigvol">
<polygon fill="none" stroke="black" points="279.5,-228.5 279.5,-247.5 323.5,-247.5 323.5,-228.5 279.5,-228.5"/>
<text text-anchor="middle" x="301.5" y="-235.5" font-family="Helvetica,sans-Serif" font-size="10.00">sigvol</text>
</a>
</g>
</g>
<!-- Node4&#45;&gt;Node34 -->
<g id="edge38" class="edge"><title>Node4&#45;&gt;Node34</title>
<path fill="none" stroke="midnightblue" d="M181.412,-665.348C183.992,-609.016 199.607,-322.968 253,-257 257.254,-251.744 263.178,-247.934 269.403,-245.175"/>
<polygon fill="midnightblue" stroke="midnightblue" points="271.005,-248.319 279.236,-241.647 268.641,-241.73 271.005,-248.319"/>
</g>
<!-- Node35 -->
<g id="node35" class="node"><title>Node35</title>
<g id="a_node35"><a xlink:href="pk2iso_8for.html#a525f2295f9830b95a6b5ce67d04ea1eb" target="_top" xlink:title="pk2iso">
<polygon fill="none" stroke="black" points="278,-190.5 278,-209.5 325,-209.5 325,-190.5 278,-190.5"/>
<text text-anchor="middle" x="301.5" y="-197.5" font-family="Helvetica,sans-Serif" font-size="10.00">pk2iso</text>
</a>
</g>
</g>
<!-- Node4&#45;&gt;Node35 -->
<g id="edge39" class="edge"><title>Node4&#45;&gt;Node35</title>
<path fill="none" stroke="midnightblue" d="M181.262,-665.262C183.047,-605.775 195.14,-291.517 253,-219 256.904,-214.108 262.257,-210.469 267.967,-207.765"/>
<polygon fill="midnightblue" stroke="midnightblue" points="269.627,-210.877 277.719,-204.039 267.128,-204.338 269.627,-210.877"/>
</g>
<!-- Node37 -->
<g id="node37" class="node"><title>Node37</title>
<g id="a_node37"><a xlink:href="sigiso_8for.html#a922e87c5383e6f4d45517c30608b0bda" target="_top" xlink:title="sigiso">
<polygon fill="none" stroke="black" points="279.5,-152.5 279.5,-171.5 323.5,-171.5 323.5,-152.5 279.5,-152.5"/>
<text text-anchor="middle" x="301.5" y="-159.5" font-family="Helvetica,sans-Serif" font-size="10.00">sigiso</text>
</a>
</g>
</g>
<!-- Node4&#45;&gt;Node37 -->
<g id="edge41" class="edge"><title>Node4&#45;&gt;Node37</title>
<path fill="none" stroke="midnightblue" d="M181.132,-665.276C182.161,-602.995 190.63,-260.129 253,-181 257.185,-175.69 263.082,-171.858 269.302,-169.094"/>
<polygon fill="midnightblue" stroke="midnightblue" points="270.907,-172.237 279.142,-165.572 268.548,-165.647 270.907,-172.237"/>
</g>
<!-- Node38 -->
<g id="node38" class="node"><title>Node38</title>
<g id="a_node38"><a xlink:href="metvol_8for.html#af4851b40ff9da9c702d8d02257ee2d41" target="_top" xlink:title="metvol">
<polygon fill="none" stroke="black" points="276.5,-988.5 276.5,-1007.5 326.5,-1007.5 326.5,-988.5 276.5,-988.5"/>
<text text-anchor="middle" x="301.5" y="-995.5" font-family="Helvetica,sans-Serif" font-size="10.00">metvol</text>
</a>
</g>
</g>
<!-- Node4&#45;&gt;Node38 -->
<g id="edge43" class="edge"><title>Node4&#45;&gt;Node38</title>
<path fill="none" stroke="midnightblue" d="M182.086,-684.633C187.507,-731.195 212.984,-932.578 253,-979 256.697,-983.289 261.498,-986.62 266.624,-989.204"/>
<polygon fill="midnightblue" stroke="midnightblue" points="265.456,-992.508 276.035,-993.095 268.131,-986.039 265.456,-992.508"/>
</g>
<!-- Node39 -->
<g id="node39" class="node"><title>Node39</title>
<g id="a_node39"><a xlink:href="metiso_8for.html#adfb372f50c7b7ab0bbc5abad87205763" target="_top" xlink:title="metiso">
<polygon fill="none" stroke="black" points="276.5,-950.5 276.5,-969.5 326.5,-969.5 326.5,-950.5 276.5,-950.5"/>
<text text-anchor="middle" x="301.5" y="-957.5" font-family="Helvetica,sans-Serif" font-size="10.00">metiso</text>
</a>
</g>
</g>
<!-- Node4&#45;&gt;Node39 -->
<g id="edge45" class="edge"><title>Node4&#45;&gt;Node39</title>
<path fill="none" stroke="midnightblue" d="M180.719,-684.637C180.144,-722.44 183.021,-862.38 253,-941 256.765,-945.229 261.6,-948.531 266.739,-951.104"/>
<polygon fill="midnightblue" stroke="midnightblue" points="265.573,-954.409 276.152,-954.992 268.246,-947.939 265.573,-954.409"/>
</g>
<!-- Node41 -->
<g id="node41" class="node"><title>Node41</title>
<g id="a_node41"><a xlink:href="setvol_8for.html#a85643b95cd69b75883847752822f61f4" target="_top" xlink:title="setvol">
<polygon fill="none" stroke="black" points="279,-114.5 279,-133.5 324,-133.5 324,-114.5 279,-114.5"/>
<text text-anchor="middle" x="301.5" y="-121.5" font-family="Helvetica,sans-Serif" font-size="10.00">setvol</text>
</a>
</g>
</g>
<!-- Node4&#45;&gt;Node41 -->
<g id="edge48" class="edge"><title>Node4&#45;&gt;Node41</title>
<path fill="none" stroke="midnightblue" d="M181.02,-665.382C181.336,-600.676 186.077,-228.802 253,-143 257.087,-137.761 262.841,-133.961 268.94,-131.207"/>
<polygon fill="midnightblue" stroke="midnightblue" points="270.418,-134.393 278.617,-127.683 268.023,-127.816 270.418,-134.393"/>
</g>
<!-- Node42 -->
<g id="node42" class="node"><title>Node42</title>
<g id="a_node42"><a xlink:href="setiso_8for.html#a684bfc6ac044f6740b76347b3ff89a24" target="_top" xlink:title="setiso">
<polygon fill="none" stroke="black" points="279,-912.5 279,-931.5 324,-931.5 324,-912.5 279,-912.5"/>
<text text-anchor="middle" x="301.5" y="-919.5" font-family="Helvetica,sans-Serif" font-size="10.00">setiso</text>
</a>
</g>
</g>
<!-- Node4&#45;&gt;Node42 -->
<g id="edge49" class="edge"><title>Node4&#45;&gt;Node42</title>
<path fill="none" stroke="midnightblue" d="M181.238,-684.665C182.597,-719.06 191.726,-836.974 253,-903 257.441,-907.785 263.247,-911.389 269.269,-914.095"/>
<polygon fill="midnightblue" stroke="midnightblue" points="268.151,-917.414 278.743,-917.649 270.61,-910.86 268.151,-917.414"/>
</g>
<!-- Node43 -->
<g id="node43" class="node"><title>Node43</title>
<g id="a_node43"><a xlink:href="setjr_8for.html#a4501b4a0d0a60316eab4a804e36a3385" target="_top" xlink:title="setjr">
<polygon fill="none" stroke="black" points="282.5,-76.5 282.5,-95.5 320.5,-95.5 320.5,-76.5 282.5,-76.5"/>
<text text-anchor="middle" x="301.5" y="-83.5" font-family="Helvetica,sans-Serif" font-size="10.00">setjr</text>
</a>
</g>
</g>
<!-- Node4&#45;&gt;Node43 -->
<g id="edge51" class="edge"><title>Node4&#45;&gt;Node43</title>
<path fill="none" stroke="midnightblue" d="M180.923,-665.141C180.578,-597.111 181.636,-197.338 253,-105 257.909,-98.6477 265.274,-94.4125 272.747,-91.5913"/>
<polygon fill="midnightblue" stroke="midnightblue" points="273.893,-94.9013 282.438,-88.6379 271.852,-88.2054 273.893,-94.9013"/>
</g>
<!-- Node44 -->
<g id="node44" class="node"><title>Node44</title>
<g id="a_node44"><a xlink:href="index_8for.html#a08f48dba99892c8df390efd4490d66fa" target="_top" xlink:title="indexx">
<polygon fill="none" stroke="black" points="278,-38.5 278,-57.5 325,-57.5 325,-38.5 278,-38.5"/>
<text text-anchor="middle" x="301.5" y="-45.5" font-family="Helvetica,sans-Serif" font-size="10.00">indexx</text>
</a>
</g>
</g>
<!-- Node4&#45;&gt;Node44 -->
<g id="edge52" class="edge"><title>Node4&#45;&gt;Node44</title>
<path fill="none" stroke="midnightblue" d="M180.84,-665.398C179.861,-595.603 177.01,-166.117 253,-67 256.808,-62.0329 262.119,-58.3607 267.817,-55.6469"/>
<polygon fill="midnightblue" stroke="midnightblue" points="269.478,-58.7593 277.574,-51.9251 266.983,-52.219 269.478,-58.7593"/>
</g>
<!-- Node45 -->
<g id="node45" class="node"><title>Node45</title>
<g id="a_node45"><a xlink:href="sdvwrite_8for.html#a10cc1dd858c5a3789ac6e12fcba396a0" target="_top" xlink:title="sdvwrite">
<polygon fill="none" stroke="black" points="273.5,-0.5 273.5,-19.5 329.5,-19.5 329.5,-0.5 273.5,-0.5"/>
<text text-anchor="middle" x="301.5" y="-7.5" font-family="Helvetica,sans-Serif" font-size="10.00">sdvwrite</text>
</a>
</g>
</g>
<!-- Node4&#45;&gt;Node45 -->
<g id="edge53" class="edge"><title>Node4&#45;&gt;Node45</title>
<path fill="none" stroke="midnightblue" d="M181.486,-665.251C185.394,-588.422 212.587,-82.0894 253,-29 255.861,-25.2411 259.584,-22.224 263.687,-19.8027"/>
<polygon fill="midnightblue" stroke="midnightblue" points="265.518,-22.8097 273.088,-15.3971 262.548,-16.4712 265.518,-22.8097"/>
</g>
<!-- Node15 -->
<g id="node15" class="node"><title>Node15</title>
<g id="a_node15"><a xlink:href="spectral_8for.html#a801551e9f01a5150209f80d289d6d41c" target="_top" xlink:title="spectral">
<polygon fill="none" stroke="black" points="400,-722.5 400,-741.5 455,-741.5 455,-722.5 400,-722.5"/>
<text text-anchor="middle" x="427.5" y="-729.5" font-family="Helvetica,sans-Serif" font-size="10.00">spectral</text>
</a>
</g>
</g>
<!-- Node14&#45;&gt;Node15 -->
<g id="edge14" class="edge"><title>Node14&#45;&gt;Node15</title>
<path fill="none" stroke="midnightblue" d="M326.703,-732C344.588,-732 369.26,-732 389.598,-732"/>
<polygon fill="midnightblue" stroke="midnightblue" points="389.779,-735.5 399.779,-732 389.779,-728.5 389.779,-735.5"/>
</g>
<!-- Node16 -->
<g id="node16" class="node"><title>Node16</title>
<g id="a_node16"><a xlink:href="spectral_8for.html#af30a892ec55877718024cfef2cee100e" target="_top" xlink:title="jacobi">
<polygon fill="none" stroke="black" points="505,-741.5 505,-760.5 549,-760.5 549,-741.5 505,-741.5"/>
<text text-anchor="middle" x="527" y="-748.5" font-family="Helvetica,sans-Serif" font-size="10.00">jacobi</text>
</a>
</g>
</g>
<!-- Node15&#45;&gt;Node16 -->
<g id="edge15" class="edge"><title>Node15&#45;&gt;Node16</title>
<path fill="none" stroke="midnightblue" d="M455.142,-737.192C467.388,-739.578 481.995,-742.425 494.756,-744.911"/>
<polygon fill="midnightblue" stroke="midnightblue" points="494.464,-748.42 504.949,-746.898 495.803,-741.55 494.464,-748.42"/>
</g>
<!-- Node17 -->
<g id="node17" class="node"><title>Node17</title>
<g id="a_node17"><a xlink:href="spectral_8for.html#a4cefa75528ebe8935b50d575c9042b3c" target="_top" xlink:title="eigsrt">
<polygon fill="none" stroke="black" points="505,-703.5 505,-722.5 549,-722.5 549,-703.5 505,-703.5"/>
<text text-anchor="middle" x="527" y="-710.5" font-family="Helvetica,sans-Serif" font-size="10.00">eigsrt</text>
</a>
</g>
</g>
<!-- Node15&#45;&gt;Node17 -->
<g id="edge16" class="edge"><title>Node15&#45;&gt;Node17</title>
<path fill="none" stroke="midnightblue" d="M455.142,-726.808C467.388,-724.422 481.995,-721.575 494.756,-719.089"/>
<polygon fill="midnightblue" stroke="midnightblue" points="495.803,-722.45 504.949,-717.102 494.464,-715.58 495.803,-722.45"/>
</g>
<!-- Node18&#45;&gt;Node9 -->
<g id="edge18" class="edge"><title>Node18&#45;&gt;Node9</title>
<path fill="none" stroke="midnightblue" d="M327.803,-1102.32C335.024,-1099.44 342.866,-1096.19 350,-1093 366.545,-1085.6 384.73,-1076.6 399.217,-1069.22"/>
<polygon fill="midnightblue" stroke="midnightblue" points="400.85,-1072.32 408.149,-1064.64 397.654,-1066.09 400.85,-1072.32"/>
</g>
<!-- Node20&#45;&gt;Node9 -->
<g id="edge21" class="edge"><title>Node20&#45;&gt;Node9</title>
<path fill="none" stroke="midnightblue" d="M326.115,-1070.38C343.109,-1067.78 366.446,-1064.2 386.343,-1061.15"/>
<polygon fill="midnightblue" stroke="midnightblue" points="387.027,-1064.59 396.382,-1059.61 385.967,-1057.67 387.027,-1064.59"/>
</g>
<!-- Node25&#45;&gt;Node26 -->
<g id="edge27" class="edge"><title>Node25&#45;&gt;Node26</title>
<path fill="none" stroke="midnightblue" d="M338.699,-471.547C356.34,-474.25 377.373,-477.473 394.43,-480.086"/>
<polygon fill="midnightblue" stroke="midnightblue" points="394.056,-483.57 404.471,-481.625 395.116,-476.65 394.056,-483.57"/>
</g>
<!-- Node28&#45;&gt;Node29 -->
<g id="edge30" class="edge"><title>Node28&#45;&gt;Node29</title>
<path fill="none" stroke="midnightblue" d="M337.041,-357.293C354.844,-360.02 376.433,-363.328 393.942,-366.011"/>
<polygon fill="midnightblue" stroke="midnightblue" points="393.832,-369.535 404.246,-367.59 394.892,-362.616 393.832,-369.535"/>
</g>
<!-- Node32 -->
<g id="node32" class="node"><title>Node32</title>
<g id="a_node32"><a xlink:href="tensorprod22_8for.html#ade4458c8350bdd937ff4405df54f6328" target="_top" xlink:title="tensorprod2">
<polygon fill="none" stroke="black" points="390,-266.5 390,-285.5 465,-285.5 465,-266.5 390,-266.5"/>
<text text-anchor="middle" x="427.5" y="-273.5" font-family="Helvetica,sans-Serif" font-size="10.00">tensorprod2</text>
</a>
</g>
</g>
<!-- Node31&#45;&gt;Node32 -->
<g id="edge34" class="edge"><title>Node31&#45;&gt;Node32</title>
<path fill="none" stroke="midnightblue" d="M350.087,-276C359.717,-276 369.838,-276 379.45,-276"/>
<polygon fill="midnightblue" stroke="midnightblue" points="379.632,-279.5 389.632,-276 379.632,-272.5 379.632,-279.5"/>
</g>
<!-- Node33&#45;&gt;Node9 -->
<g id="edge37" class="edge"><title>Node33&#45;&gt;Node9</title>
<path fill="none" stroke="midnightblue" d="M325.244,-1039.48C342.35,-1042.11 366.229,-1045.76 386.502,-1048.87"/>
<polygon fill="midnightblue" stroke="midnightblue" points="386.004,-1052.34 396.419,-1050.39 387.064,-1045.42 386.004,-1052.34"/>
</g>
<!-- Node36 -->
<g id="node36" class="node"><title>Node36</title>
<g id="a_node36"><a xlink:href="contraction42_8for.html#aad71a324137b3d597992a6ba4386bc1c" target="_top" xlink:title="contraction42">
<polygon fill="none" stroke="black" points="386,-171.5 386,-190.5 469,-190.5 469,-171.5 386,-171.5"/>
<text text-anchor="middle" x="427.5" y="-178.5" font-family="Helvetica,sans-Serif" font-size="10.00">contraction42</text>
</a>
</g>
</g>
<!-- Node35&#45;&gt;Node36 -->
<g id="edge40" class="edge"><title>Node35&#45;&gt;Node36</title>
<path fill="none" stroke="midnightblue" d="M325.244,-196.515C339.388,-194.348 358.162,-191.471 375.7,-188.784"/>
<polygon fill="midnightblue" stroke="midnightblue" points="376.484,-192.205 385.839,-187.23 375.424,-185.285 376.484,-192.205"/>
</g>
<!-- Node37&#45;&gt;Node36 -->
<g id="edge42" class="edge"><title>Node37&#45;&gt;Node36</title>
<path fill="none" stroke="midnightblue" d="M323.535,-165.223C337.877,-167.421 357.512,-170.429 375.792,-173.23"/>
<polygon fill="midnightblue" stroke="midnightblue" points="375.352,-176.704 385.766,-174.759 376.412,-169.784 375.352,-176.704"/>
</g>
<!-- Node38&#45;&gt;Node9 -->
<g id="edge44" class="edge"><title>Node38&#45;&gt;Node9</title>
<path fill="none" stroke="midnightblue" d="M326.822,-1007.29C334.309,-1010.27 342.541,-1013.66 350,-1017 366.545,-1024.4 384.73,-1033.4 399.217,-1040.78"/>
<polygon fill="midnightblue" stroke="midnightblue" points="397.654,-1043.91 408.149,-1045.36 400.85,-1037.68 397.654,-1043.91"/>
</g>
<!-- Node39&#45;&gt;Node9 -->
<g id="edge46" class="edge"><title>Node39&#45;&gt;Node9</title>
<path fill="none" stroke="midnightblue" d="M326.62,-967.501C334.413,-970.476 342.874,-974.318 350,-979 374.782,-995.283 398.183,-1020.51 412.425,-1037.38"/>
<polygon fill="midnightblue" stroke="midnightblue" points="409.934,-1039.86 418.996,-1045.35 415.334,-1035.41 409.934,-1039.86"/>
</g>
<!-- Node40 -->
<g id="node40" class="node"><title>Node40</title>
<g id="a_node40"><a xlink:href="contraction44_8for.html#ad99a62a07d01f333320f807d2c991a51" target="_top" xlink:title="contraction44">
<polygon fill="none" stroke="black" points="386,-931.5 386,-950.5 469,-950.5 469,-931.5 386,-931.5"/>
<text text-anchor="middle" x="427.5" y="-938.5" font-family="Helvetica,sans-Serif" font-size="10.00">contraction44</text>
</a>
</g>
</g>
<!-- Node39&#45;&gt;Node40 -->
<g id="edge47" class="edge"><title>Node39&#45;&gt;Node40</title>
<path fill="none" stroke="midnightblue" d="M326.703,-956.292C340.594,-954.163 358.579,-951.407 375.447,-948.823"/>
<polygon fill="midnightblue" stroke="midnightblue" points="376.405,-952.217 385.76,-947.242 375.345,-945.298 376.405,-952.217"/>
</g>
<!-- Node42&#45;&gt;Node40 -->
<g id="edge50" class="edge"><title>Node42&#45;&gt;Node40</title>
<path fill="none" stroke="midnightblue" d="M324.099,-925.31C338.377,-927.497 357.717,-930.461 375.745,-933.223"/>
<polygon fill="midnightblue" stroke="midnightblue" points="375.456,-936.72 385.871,-934.775 376.516,-929.8 375.456,-936.72"/>
</g>
</g>
</svg>
