<?xml version="1.0" encoding="UTF-8" standalone="no"?>
<!DOCTYPE svg PUBLIC "-//W3C//DTD SVG 1.1//EN"
 "http://www.w3.org/Graphics/SVG/1.1/DTD/svg11.dtd">
<!-- Generated by graphviz version 2.38.0 (20140413.2041)
 -->
<!-- Title: matinv3d Pages: 1 -->
<svg width="381pt" height="197pt"
 viewBox="0.00 0.00 381.00 196.85" xmlns="http://www.w3.org/2000/svg" xmlns:xlink="http://www.w3.org/1999/xlink">
<g id="graph0" class="graph" transform="scale(1 1) rotate(0) translate(4 192.847)">
<title>matinv3d</title>
<!-- Node1 -->
<g id="node1" class="node"><title>Node1</title>
<polygon fill="#bfbfbf" stroke="black" points="0,-95.5 0,-114.5 62,-114.5 62,-95.5 0,-95.5"/>
<text text-anchor="middle" x="31" y="-102.5" font-family="Helvetica,sans-Serif" font-size="10.00">matinv3d</text>
</g>
<!-- Node2 -->
<g id="node2" class="node"><title>Node2</title>
<g id="a_node2"><a xlink:href="__umat_8for.html#ade59a72c9e55c27de31535430ff6916e" target="_top" xlink:title=" Record of revisions: | Date Programmer Description of change | ==== ========== =====================...">
<polygon fill="none" stroke="black" points="188,-95.5 188,-114.5 230,-114.5 230,-95.5 188,-95.5"/>
<text text-anchor="middle" x="209" y="-102.5" font-family="Helvetica,sans-Serif" font-size="10.00">umat</text>
</a>
</g>
</g>
<!-- Node1&#45;&gt;Node2 -->
<g id="edge1" class="edge"><title>Node1&#45;&gt;Node2</title>
<path fill="none" stroke="midnightblue" d="M41.7619,-123.498C52.6777,-141.972 72.2574,-169.261 98,-181 119.837,-190.958 130.579,-191.824 152,-181 179.793,-166.956 197.178,-131.894 204.295,-114.749"/>
<polygon fill="midnightblue" stroke="midnightblue" points="44.6767,-121.54 36.7305,-114.532 38.5723,-124.966 44.6767,-121.54"/>
</g>
<!-- Node4 -->
<g id="node4" class="node"><title>Node4</title>
<g id="a_node4"><a xlink:href="metiso_8for.html#adfb372f50c7b7ab0bbc5abad87205763" target="_top" xlink:title="metiso">
<polygon fill="none" stroke="black" points="100,-152.5 100,-171.5 150,-171.5 150,-152.5 100,-152.5"/>
<text text-anchor="middle" x="125" y="-159.5" font-family="Helvetica,sans-Serif" font-size="10.00">metiso</text>
</a>
</g>
</g>
<!-- Node1&#45;&gt;Node4 -->
<g id="edge3" class="edge"><title>Node1&#45;&gt;Node4</title>
<path fill="none" stroke="midnightblue" d="M56.2437,-120.021C72.8381,-130.302 94.3402,-143.624 108.624,-152.474"/>
<polygon fill="midnightblue" stroke="midnightblue" points="57.9506,-116.961 47.6065,-114.669 54.2639,-122.911 57.9506,-116.961"/>
</g>
<!-- Node5 -->
<g id="node5" class="node"><title>Node5</title>
<g id="a_node5"><a xlink:href="metvol_8for.html#af4851b40ff9da9c702d8d02257ee2d41" target="_top" xlink:title="metvol">
<polygon fill="none" stroke="black" points="100,-114.5 100,-133.5 150,-133.5 150,-114.5 100,-114.5"/>
<text text-anchor="middle" x="125" y="-121.5" font-family="Helvetica,sans-Serif" font-size="10.00">metvol</text>
</a>
</g>
</g>
<!-- Node1&#45;&gt;Node5 -->
<g id="edge5" class="edge"><title>Node1&#45;&gt;Node5</title>
<path fill="none" stroke="midnightblue" d="M72.1818,-113.298C81.6425,-115.252 91.4369,-117.275 99.9295,-119.029"/>
<polygon fill="midnightblue" stroke="midnightblue" points="72.6255,-109.816 62.1242,-111.221 71.2097,-116.672 72.6255,-109.816"/>
</g>
<!-- Node6 -->
<g id="node6" class="node"><title>Node6</title>
<g id="a_node6"><a xlink:href="pk2vol_8for.html#ac9029238abb007c001f636e497ee0ac7" target="_top" xlink:title="pk2vol">
<polygon fill="none" stroke="black" points="101.5,-76.5 101.5,-95.5 148.5,-95.5 148.5,-76.5 101.5,-76.5"/>
<text text-anchor="middle" x="125" y="-83.5" font-family="Helvetica,sans-Serif" font-size="10.00">pk2vol</text>
</a>
</g>
</g>
<!-- Node1&#45;&gt;Node6 -->
<g id="edge7" class="edge"><title>Node1&#45;&gt;Node6</title>
<path fill="none" stroke="midnightblue" d="M71.9909,-96.741C82.0609,-94.6613 92.5219,-92.5009 101.399,-90.6677"/>
<polygon fill="midnightblue" stroke="midnightblue" points="71.2097,-93.3284 62.1242,-98.7787 72.6255,-100.184 71.2097,-93.3284"/>
</g>
<!-- Node7 -->
<g id="node7" class="node"><title>Node7</title>
<g id="a_node7"><a xlink:href="proj__lagrangian_8for.html#ad4a855453319c895aa447c6517605e4a" target="_top" xlink:title="projlag">
<polygon fill="none" stroke="black" points="100.5,-38.5 100.5,-57.5 149.5,-57.5 149.5,-38.5 100.5,-38.5"/>
<text text-anchor="middle" x="125" y="-45.5" font-family="Helvetica,sans-Serif" font-size="10.00">projlag</text>
</a>
</g>
</g>
<!-- Node1&#45;&gt;Node7 -->
<g id="edge9" class="edge"><title>Node1&#45;&gt;Node7</title>
<path fill="none" stroke="midnightblue" d="M56.2437,-89.9794C72.8381,-79.6982 94.3402,-66.3762 108.624,-57.5265"/>
<polygon fill="midnightblue" stroke="midnightblue" points="54.2639,-87.0887 47.6065,-95.3307 57.9506,-93.0392 54.2639,-87.0887"/>
</g>
<!-- Node8 -->
<g id="node8" class="node"><title>Node8</title>
<g id="a_node8"><a xlink:href="rotation_8for.html#a75b4b6ad5b953d7b49af0362930cac42" target="_top" xlink:title="rotation">
<polygon fill="none" stroke="black" points="98,-0.5 98,-19.5 152,-19.5 152,-0.5 98,-0.5"/>
<text text-anchor="middle" x="125" y="-7.5" font-family="Helvetica,sans-Serif" font-size="10.00">rotation</text>
</a>
</g>
</g>
<!-- Node1&#45;&gt;Node8 -->
<g id="edge11" class="edge"><title>Node1&#45;&gt;Node8</title>
<path fill="none" stroke="midnightblue" d="M45.5478,-87.2204C58.2236,-71.1424 78.1357,-47.2618 98,-29 101.622,-25.6703 105.826,-22.3847 109.784,-19.5062"/>
<polygon fill="midnightblue" stroke="midnightblue" points="42.669,-85.2209 39.2964,-95.2646 48.1962,-89.5163 42.669,-85.2209"/>
</g>
<!-- Node3 -->
<g id="node3" class="node"><title>Node3</title>
<g id="a_node3"><a xlink:href="main_8f90.html#af34ff6741d4ff9d2446ce73a4e460121" target="_top" xlink:title="test_general_umat">
<polygon fill="none" stroke="black" points="266,-95.5 266,-114.5 373,-114.5 373,-95.5 266,-95.5"/>
<text text-anchor="middle" x="319.5" y="-102.5" font-family="Helvetica,sans-Serif" font-size="10.00">test_general_umat</text>
</a>
</g>
</g>
<!-- Node2&#45;&gt;Node3 -->
<g id="edge2" class="edge"><title>Node2&#45;&gt;Node3</title>
<path fill="none" stroke="midnightblue" d="M240.393,-105C248.354,-105 257.171,-105 265.93,-105"/>
<polygon fill="midnightblue" stroke="midnightblue" points="240.154,-101.5 230.154,-105 240.154,-108.5 240.154,-101.5"/>
</g>
<!-- Node4&#45;&gt;Node2 -->
<g id="edge4" class="edge"><title>Node4&#45;&gt;Node2</title>
<path fill="none" stroke="midnightblue" d="M148.435,-146.405C163.107,-136.206 181.8,-123.212 194.295,-114.526"/>
<polygon fill="midnightblue" stroke="midnightblue" points="146.124,-143.749 139.91,-152.331 150.119,-149.497 146.124,-143.749"/>
</g>
<!-- Node5&#45;&gt;Node2 -->
<g id="edge6" class="edge"><title>Node5&#45;&gt;Node2</title>
<path fill="none" stroke="midnightblue" d="M160.116,-116.095C169.564,-113.906 179.514,-111.6 187.881,-109.662"/>
<polygon fill="midnightblue" stroke="midnightblue" points="159.111,-112.735 150.159,-118.402 160.691,-119.554 159.111,-112.735"/>
</g>
<!-- Node6&#45;&gt;Node2 -->
<g id="edge8" class="edge"><title>Node6&#45;&gt;Node2</title>
<path fill="none" stroke="midnightblue" d="M158.736,-93.5853C168.556,-95.8606 179.036,-98.2889 187.794,-100.318"/>
<polygon fill="midnightblue" stroke="midnightblue" points="159.374,-90.1402 148.842,-91.2926 157.793,-96.9596 159.374,-90.1402"/>
</g>
<!-- Node7&#45;&gt;Node2 -->
<g id="edge10" class="edge"><title>Node7&#45;&gt;Node2</title>
<path fill="none" stroke="midnightblue" d="M148.435,-63.5948C163.107,-73.7937 181.8,-86.7877 194.295,-95.4735"/>
<polygon fill="midnightblue" stroke="midnightblue" points="150.119,-60.5031 139.91,-57.6693 146.124,-66.2509 150.119,-60.5031"/>
</g>
<!-- Node8&#45;&gt;Node2 -->
<g id="edge12" class="edge"><title>Node8&#45;&gt;Node2</title>
<path fill="none" stroke="midnightblue" d="M148.642,-25.8676C149.808,-26.8926 150.935,-27.9397 152,-29 173.366,-50.2818 192.948,-80.2328 202.273,-95.3967"/>
<polygon fill="midnightblue" stroke="midnightblue" points="150.667,-23.0059 140.662,-19.5192 146.309,-28.4838 150.667,-23.0059"/>
</g>
</g>
</svg>
