<?xml version="1.0" encoding="UTF-8" standalone="no"?>
<!DOCTYPE svg PUBLIC "-//W3C//DTD SVG 1.1//EN"
 "http://www.w3.org/Graphics/SVG/1.1/DTD/svg11.dtd">
<!-- Generated by graphviz version 2.38.0 (20140413.2041)
 -->
<!-- Title: push2 Pages: 1 -->
<svg width="385pt" height="47pt"
 viewBox="0.00 0.00 385.00 47.00" xmlns="http://www.w3.org/2000/svg" xmlns:xlink="http://www.w3.org/1999/xlink">
<g id="graph0" class="graph" transform="scale(1 1) rotate(0) translate(4 43)">
<title>push2</title>
<!-- Node1 -->
<g id="node1" class="node"><title>Node1</title>
<polygon fill="#bfbfbf" stroke="black" points="0,-19.5 0,-38.5 46,-38.5 46,-19.5 0,-19.5"/>
<text text-anchor="middle" x="23" y="-26.5" font-family="Helvetica,sans-Serif" font-size="10.00">push2</text>
</g>
<!-- Node2 -->
<g id="node2" class="node"><title>Node2</title>
<g id="a_node2"><a xlink:href="__umat_8for.html#ade59a72c9e55c27de31535430ff6916e" target="_top" xlink:title=" Record of revisions: | Date Programmer Description of change | ==== ========== =====================...">
<polygon fill="none" stroke="black" points="192,-19.5 192,-38.5 234,-38.5 234,-19.5 192,-19.5"/>
<text text-anchor="middle" x="213" y="-26.5" font-family="Helvetica,sans-Serif" font-size="10.00">umat</text>
</a>
</g>
</g>
<!-- Node1&#45;&gt;Node2 -->
<g id="edge1" class="edge"><title>Node1&#45;&gt;Node2</title>
<path fill="none" stroke="midnightblue" d="M56.5637,-29C95.4505,-29 159.297,-29 191.729,-29"/>
<polygon fill="midnightblue" stroke="midnightblue" points="56.3044,-25.5001 46.3043,-29 56.3043,-32.5001 56.3044,-25.5001"/>
</g>
<!-- Node4 -->
<g id="node4" class="node"><title>Node4</title>
<g id="a_node4"><a xlink:href="sigisomatfic_8for.html#a5dc6369258e0cde9daee2a9ccec7972a" target="_top" xlink:title="sigisomatfic">
<polygon fill="none" stroke="black" points="82,-0.5 82,-19.5 156,-19.5 156,-0.5 82,-0.5"/>
<text text-anchor="middle" x="119" y="-7.5" font-family="Helvetica,sans-Serif" font-size="10.00">sigisomatfic</text>
</a>
</g>
</g>
<!-- Node1&#45;&gt;Node4 -->
<g id="edge3" class="edge"><title>Node1&#45;&gt;Node4</title>
<path fill="none" stroke="midnightblue" d="M56.2907,-22.4732C64.5507,-20.8036 73.4848,-18.9978 81.9218,-17.2924"/>
<polygon fill="midnightblue" stroke="midnightblue" points="55.385,-19.0854 46.2767,-24.4973 56.7719,-25.9466 55.385,-19.0854"/>
</g>
<!-- Node3 -->
<g id="node3" class="node"><title>Node3</title>
<g id="a_node3"><a xlink:href="main_8f90.html#af34ff6741d4ff9d2446ce73a4e460121" target="_top" xlink:title="test_general_umat">
<polygon fill="none" stroke="black" points="270,-19.5 270,-38.5 377,-38.5 377,-19.5 270,-19.5"/>
<text text-anchor="middle" x="323.5" y="-26.5" font-family="Helvetica,sans-Serif" font-size="10.00">test_general_umat</text>
</a>
</g>
</g>
<!-- Node2&#45;&gt;Node3 -->
<g id="edge2" class="edge"><title>Node2&#45;&gt;Node3</title>
<path fill="none" stroke="midnightblue" d="M244.393,-29C252.354,-29 261.171,-29 269.93,-29"/>
<polygon fill="midnightblue" stroke="midnightblue" points="244.154,-25.5001 234.154,-29 244.154,-32.5001 244.154,-25.5001"/>
</g>
<!-- Node4&#45;&gt;Node2 -->
<g id="edge4" class="edge"><title>Node4&#45;&gt;Node2</title>
<path fill="none" stroke="midnightblue" d="M165.942,-19.4881C175.08,-21.3751 184.22,-23.2628 191.921,-24.8533"/>
<polygon fill="midnightblue" stroke="midnightblue" points="166.598,-16.0497 156.097,-17.4548 165.182,-22.9051 166.598,-16.0497"/>
</g>
</g>
</svg>
