<?xml version="1.0" encoding="UTF-8" standalone="no"?>
<!DOCTYPE svg PUBLIC "-//W3C//DTD SVG 1.1//EN"
 "http://www.w3.org/Graphics/SVG/1.1/DTD/svg11.dtd">
<!-- Generated by graphviz version 2.38.0 (20140413.2041)
 -->
<!-- Title: push4 Pages: 1 -->
<svg width="382pt" height="47pt"
 viewBox="0.00 0.00 382.00 47.00" xmlns="http://www.w3.org/2000/svg" xmlns:xlink="http://www.w3.org/1999/xlink">
<g id="graph0" class="graph" transform="scale(1 1) rotate(0) translate(4 43)">
<title>push4</title>
<!-- Node1 -->
<g id="node1" class="node"><title>Node1</title>
<polygon fill="#bfbfbf" stroke="black" points="0,-19.5 0,-38.5 46,-38.5 46,-19.5 0,-19.5"/>
<text text-anchor="middle" x="23" y="-26.5" font-family="Helvetica,sans-Serif" font-size="10.00">push4</text>
</g>
<!-- Node2 -->
<g id="node2" class="node"><title>Node2</title>
<g id="a_node2"><a xlink:href="__umat_8for.html#ade59a72c9e55c27de31535430ff6916e" target="_top" xlink:title=" Record of revisions: | Date Programmer Description of change | ==== ========== =====================...">
<polygon fill="none" stroke="black" points="189,-19.5 189,-38.5 231,-38.5 231,-19.5 189,-19.5"/>
<text text-anchor="middle" x="210" y="-26.5" font-family="Helvetica,sans-Serif" font-size="10.00">umat</text>
</a>
</g>
</g>
<!-- Node1&#45;&gt;Node2 -->
<g id="edge1" class="edge"><title>Node1&#45;&gt;Node2</title>
<path fill="none" stroke="midnightblue" d="M56.4116,-29C94.6376,-29 156.999,-29 188.868,-29"/>
<polygon fill="midnightblue" stroke="midnightblue" points="56.3154,-25.5001 46.3153,-29 56.3153,-32.5001 56.3154,-25.5001"/>
</g>
<!-- Node4 -->
<g id="node4" class="node"><title>Node4</title>
<g id="a_node4"><a xlink:href="cisomatfic_8for.html#a9bae2c893581a5ef032c8e109eb1ea0c" target="_top" xlink:title="csisomatfic">
<polygon fill="none" stroke="black" points="82,-0.5 82,-19.5 153,-19.5 153,-0.5 82,-0.5"/>
<text text-anchor="middle" x="117.5" y="-7.5" font-family="Helvetica,sans-Serif" font-size="10.00">csisomatfic</text>
</a>
</g>
</g>
<!-- Node1&#45;&gt;Node4 -->
<g id="edge3" class="edge"><title>Node1&#45;&gt;Node4</title>
<path fill="none" stroke="midnightblue" d="M56.3398,-22.3572C64.5341,-20.6741 73.3709,-18.859 81.6821,-17.1518"/>
<polygon fill="midnightblue" stroke="midnightblue" points="55.4829,-18.9601 46.3917,-24.4006 56.8914,-25.8169 55.4829,-18.9601"/>
</g>
<!-- Node3 -->
<g id="node3" class="node"><title>Node3</title>
<g id="a_node3"><a xlink:href="main_8f90.html#af34ff6741d4ff9d2446ce73a4e460121" target="_top" xlink:title="test_general_umat">
<polygon fill="none" stroke="black" points="267,-19.5 267,-38.5 374,-38.5 374,-19.5 267,-19.5"/>
<text text-anchor="middle" x="320.5" y="-26.5" font-family="Helvetica,sans-Serif" font-size="10.00">test_general_umat</text>
</a>
</g>
</g>
<!-- Node2&#45;&gt;Node3 -->
<g id="edge2" class="edge"><title>Node2&#45;&gt;Node3</title>
<path fill="none" stroke="midnightblue" d="M241.393,-29C249.354,-29 258.171,-29 266.93,-29"/>
<polygon fill="midnightblue" stroke="midnightblue" points="241.154,-25.5001 231.154,-29 241.154,-32.5001 241.154,-25.5001"/>
</g>
<!-- Node4&#45;&gt;Node2 -->
<g id="edge4" class="edge"><title>Node4&#45;&gt;Node2</title>
<path fill="none" stroke="midnightblue" d="M163.288,-19.4029C172.271,-21.2889 181.279,-23.18 188.894,-24.7789"/>
<polygon fill="midnightblue" stroke="midnightblue" points="163.737,-15.921 153.231,-17.2916 162.298,-22.7716 163.737,-15.921"/>
</g>
</g>
</svg>
