<?xml version="1.0" encoding="UTF-8" standalone="no"?>
<!DOCTYPE svg PUBLIC "-//W3C//DTD SVG 1.1//EN"
 "http://www.w3.org/Graphics/SVG/1.1/DTD/svg11.dtd">
<!-- Generated by graphviz version 2.38.0 (20140413.2041)
 -->
<!-- Title: setvol Pages: 1 -->
<svg width="274pt" height="28pt"
 viewBox="0.00 0.00 274.00 28.00" xmlns="http://www.w3.org/2000/svg" xmlns:xlink="http://www.w3.org/1999/xlink">
<g id="graph0" class="graph" transform="scale(1 1) rotate(0) translate(4 24)">
<title>setvol</title>
<!-- Node1 -->
<g id="node1" class="node"><title>Node1</title>
<polygon fill="#bfbfbf" stroke="black" points="2.84217e-14,-0.5 2.84217e-14,-19.5 45,-19.5 45,-0.5 2.84217e-14,-0.5"/>
<text text-anchor="middle" x="22.5" y="-7.5" font-family="Helvetica,sans-Serif" font-size="10.00">setvol</text>
</g>
<!-- Node2 -->
<g id="node2" class="node"><title>Node2</title>
<g id="a_node2"><a xlink:href="__umat_8for.html#ade59a72c9e55c27de31535430ff6916e" target="_top" xlink:title=" Record of revisions: | Date Programmer Description of change | ==== ========== =====================...">
<polygon fill="none" stroke="black" points="81,-0.5 81,-19.5 123,-19.5 123,-0.5 81,-0.5"/>
<text text-anchor="middle" x="102" y="-7.5" font-family="Helvetica,sans-Serif" font-size="10.00">umat</text>
</a>
</g>
</g>
<!-- Node1&#45;&gt;Node2 -->
<g id="edge1" class="edge"><title>Node1&#45;&gt;Node2</title>
<path fill="none" stroke="midnightblue" d="M55.2776,-10C63.9252,-10 73.0518,-10 80.8575,-10"/>
<polygon fill="midnightblue" stroke="midnightblue" points="55.0881,-6.5001 45.0881,-10 55.088,-13.5001 55.0881,-6.5001"/>
</g>
<!-- Node3 -->
<g id="node3" class="node"><title>Node3</title>
<g id="a_node3"><a xlink:href="main_8f90.html#af34ff6741d4ff9d2446ce73a4e460121" target="_top" xlink:title="test_general_umat">
<polygon fill="none" stroke="black" points="159,-0.5 159,-19.5 266,-19.5 266,-0.5 159,-0.5"/>
<text text-anchor="middle" x="212.5" y="-7.5" font-family="Helvetica,sans-Serif" font-size="10.00">test_general_umat</text>
</a>
</g>
</g>
<!-- Node2&#45;&gt;Node3 -->
<g id="edge2" class="edge"><title>Node2&#45;&gt;Node3</title>
<path fill="none" stroke="midnightblue" d="M133.393,-10C141.354,-10 150.171,-10 158.93,-10"/>
<polygon fill="midnightblue" stroke="midnightblue" points="133.154,-6.5001 123.154,-10 133.154,-13.5001 133.154,-6.5001"/>
</g>
</g>
</svg>
