<?xml version="1.0" encoding="UTF-8" standalone="no"?>
<!DOCTYPE svg PUBLIC "-//W3C//DTD SVG 1.1//EN"
 "http://www.w3.org/Graphics/SVG/1.1/DTD/svg11.dtd">
<!-- Generated by graphviz version 2.38.0 (20140413.2041)
 -->
<!-- Title: sigvol Pages: 1 -->
<svg width="273pt" height="28pt"
 viewBox="0.00 0.00 273.00 28.00" xmlns="http://www.w3.org/2000/svg" xmlns:xlink="http://www.w3.org/1999/xlink">
<g id="graph0" class="graph" transform="scale(1 1) rotate(0) translate(4 24)">
<title>sigvol</title>
<!-- Node1 -->
<g id="node1" class="node"><title>Node1</title>
<polygon fill="#bfbfbf" stroke="black" points="-2.84217e-14,-0.5 -2.84217e-14,-19.5 44,-19.5 44,-0.5 -2.84217e-14,-0.5"/>
<text text-anchor="middle" x="22" y="-7.5" font-family="Helvetica,sans-Serif" font-size="10.00">sigvol</text>
</g>
<!-- Node2 -->
<g id="node2" class="node"><title>Node2</title>
<g id="a_node2"><a xlink:href="__umat_8for.html#ade59a72c9e55c27de31535430ff6916e" target="_top" xlink:title=" Record of revisions: | Date Programmer Description of change | ==== ========== =====================...">
<polygon fill="none" stroke="black" points="80,-0.5 80,-19.5 122,-19.5 122,-0.5 80,-0.5"/>
<text text-anchor="middle" x="101" y="-7.5" font-family="Helvetica,sans-Serif" font-size="10.00">umat</text>
</a>
</g>
</g>
<!-- Node1&#45;&gt;Node2 -->
<g id="edge1" class="edge"><title>Node1&#45;&gt;Node2</title>
<path fill="none" stroke="midnightblue" d="M54.191,-10C62.8197,-10 71.9568,-10 79.7817,-10"/>
<polygon fill="midnightblue" stroke="midnightblue" points="54.0406,-6.5001 44.0406,-10 54.0406,-13.5001 54.0406,-6.5001"/>
</g>
<!-- Node3 -->
<g id="node3" class="node"><title>Node3</title>
<g id="a_node3"><a xlink:href="main_8f90.html#af34ff6741d4ff9d2446ce73a4e460121" target="_top" xlink:title="test_general_umat">
<polygon fill="none" stroke="black" points="158,-0.5 158,-19.5 265,-19.5 265,-0.5 158,-0.5"/>
<text text-anchor="middle" x="211.5" y="-7.5" font-family="Helvetica,sans-Serif" font-size="10.00">test_general_umat</text>
</a>
</g>
</g>
<!-- Node2&#45;&gt;Node3 -->
<g id="edge2" class="edge"><title>Node2&#45;&gt;Node3</title>
<path fill="none" stroke="midnightblue" d="M132.393,-10C140.354,-10 149.171,-10 157.93,-10"/>
<polygon fill="midnightblue" stroke="midnightblue" points="132.154,-6.5001 122.154,-10 132.154,-13.5001 132.154,-6.5001"/>
</g>
</g>
</svg>
