<?xml version="1.0" encoding="UTF-8" standalone="no"?>
<!DOCTYPE svg PUBLIC "-//W3C//DTD SVG 1.1//EN"
 "http://www.w3.org/Graphics/SVG/1.1/DTD/svg11.dtd">
<!-- Generated by graphviz version 2.38.0 (20140413.2041)
 -->
<!-- Title: eigsrt Pages: 1 -->
<svg width="450pt" height="28pt"
 viewBox="0.00 0.00 450.00 28.00" xmlns="http://www.w3.org/2000/svg" xmlns:xlink="http://www.w3.org/1999/xlink">
<g id="graph0" class="graph" transform="scale(1 1) rotate(0) translate(4 24)">
<title>eigsrt</title>
<!-- Node1 -->
<g id="node1" class="node"><title>Node1</title>
<polygon fill="#bfbfbf" stroke="black" points="0,-0.5 0,-19.5 44,-19.5 44,-0.5 0,-0.5"/>
<text text-anchor="middle" x="22" y="-7.5" font-family="Helvetica,sans-Serif" font-size="10.00">eigsrt</text>
</g>
<!-- Node2 -->
<g id="node2" class="node"><title>Node2</title>
<g id="a_node2"><a xlink:href="spectral_8for.html#a801551e9f01a5150209f80d289d6d41c" target="_top" xlink:title="spectral">
<polygon fill="none" stroke="black" points="80,-0.5 80,-19.5 135,-19.5 135,-0.5 80,-0.5"/>
<text text-anchor="middle" x="107.5" y="-7.5" font-family="Helvetica,sans-Serif" font-size="10.00">spectral</text>
</a>
</g>
</g>
<!-- Node1&#45;&gt;Node2 -->
<g id="edge1" class="edge"><title>Node1&#45;&gt;Node2</title>
<path fill="none" stroke="midnightblue" d="M54.2538,-10C62.6356,-10 71.621,-10 79.7355,-10"/>
<polygon fill="midnightblue" stroke="midnightblue" points="54.0706,-6.5001 44.0706,-10 54.0705,-13.5001 54.0706,-6.5001"/>
</g>
<!-- Node3 -->
<g id="node3" class="node"><title>Node3</title>
<g id="a_node3"><a xlink:href="stretch_8for.html#a35c9d800d4cdf46135fd6fe61edb5fa2" target="_top" xlink:title="stretch">
<polygon fill="none" stroke="black" points="171,-0.5 171,-19.5 221,-19.5 221,-0.5 171,-0.5"/>
<text text-anchor="middle" x="196" y="-7.5" font-family="Helvetica,sans-Serif" font-size="10.00">stretch</text>
</a>
</g>
</g>
<!-- Node2&#45;&gt;Node3 -->
<g id="edge2" class="edge"><title>Node2&#45;&gt;Node3</title>
<path fill="none" stroke="midnightblue" d="M145.547,-10C154.079,-10 162.94,-10 170.765,-10"/>
<polygon fill="midnightblue" stroke="midnightblue" points="145.395,-6.5001 135.395,-10 145.395,-13.5001 145.395,-6.5001"/>
</g>
<!-- Node4 -->
<g id="node4" class="node"><title>Node4</title>
<g id="a_node4"><a xlink:href="__umat_8for.html#ade59a72c9e55c27de31535430ff6916e" target="_top" xlink:title=" Record of revisions: | Date Programmer Description of change | ==== ========== =====================...">
<polygon fill="none" stroke="black" points="257,-0.5 257,-19.5 299,-19.5 299,-0.5 257,-0.5"/>
<text text-anchor="middle" x="278" y="-7.5" font-family="Helvetica,sans-Serif" font-size="10.00">umat</text>
</a>
</g>
</g>
<!-- Node3&#45;&gt;Node4 -->
<g id="edge3" class="edge"><title>Node3&#45;&gt;Node4</title>
<path fill="none" stroke="midnightblue" d="M231.023,-10C239.801,-10 248.972,-10 256.793,-10"/>
<polygon fill="midnightblue" stroke="midnightblue" points="231.003,-6.5001 221.003,-10 231.003,-13.5001 231.003,-6.5001"/>
</g>
<!-- Node5 -->
<g id="node5" class="node"><title>Node5</title>
<g id="a_node5"><a xlink:href="main_8f90.html#af34ff6741d4ff9d2446ce73a4e460121" target="_top" xlink:title="test_general_umat">
<polygon fill="none" stroke="black" points="335,-0.5 335,-19.5 442,-19.5 442,-0.5 335,-0.5"/>
<text text-anchor="middle" x="388.5" y="-7.5" font-family="Helvetica,sans-Serif" font-size="10.00">test_general_umat</text>
</a>
</g>
</g>
<!-- Node4&#45;&gt;Node5 -->
<g id="edge4" class="edge"><title>Node4&#45;&gt;Node5</title>
<path fill="none" stroke="midnightblue" d="M309.393,-10C317.354,-10 326.171,-10 334.93,-10"/>
<polygon fill="midnightblue" stroke="midnightblue" points="309.154,-6.5001 299.154,-10 309.154,-13.5001 309.154,-6.5001"/>
</g>
</g>
</svg>
