<?xml version="1.0" encoding="UTF-8" standalone="no"?>
<!DOCTYPE svg PUBLIC "-//W3C//DTD SVG 1.1//EN"
 "http://www.w3.org/Graphics/SVG/1.1/DTD/svg11.dtd">
<!-- Generated by graphviz version 2.38.0 (20140413.2041)
 -->
<!-- Title: umat Pages: 1 -->
<!--zoomable 1320 -->
<svg id="main" version="1.1" xmlns="http://www.w3.org/2000/svg" xmlns:xlink="http://www.w3.org/1999/xlink" xml:space="preserve" onload="init(evt)">
<style type="text/css"><![CDATA[
.edge:hover path { stroke: red; }
.edge:hover polygon { stroke: red; fill: red; }
]]></style>
<script type="text/javascript"><![CDATA[
var edges = document.getElementsByTagName('g');
if (edges && edges.length) {
  for (var i=0;i<edges.length;i++) {
    if (edges[i].id.substr(0,4)=='edge') {
      edges[i].setAttribute('class','edge');
    }
  }
}
]]></script>
        <defs>
                <circle id="rim" cx="0" cy="0" r="7"/>
                <circle id="rim2" cx="0" cy="0" r="3.5"/>
                <g id="zoomPlus">
                        <use xlink:href="#rim" fill="#404040">
                                <set attributeName="fill" to="#808080" begin="zoomplus.mouseover" end="zoomplus.mouseout"/>
                        </use>
                        <path d="M-4,0h8M0,-4v8" fill="none" stroke="white" stroke-width="1.5" pointer-events="none"/>
                </g>
                <g id="zoomMin">
                        <use xlink:href="#rim" fill="#404040">
                                <set attributeName="fill" to="#808080" begin="zoomminus.mouseover" end="zoomminus.mouseout"/>
                        </use>
                        <path d="M-4,0h8" fill="none" stroke="white" stroke-width="1.5" pointer-events="none"/>
                </g>
                <g id="dirArrow">
                        <path fill="none" stroke="white" stroke-width="1.5" d="M0,-3.0v7 M-2.5,-0.5L0,-3.0L2.5,-0.5"/>
                </g>
               <g id="resetDef">
                       <use xlink:href="#rim2" fill="#404040">
                               <set attributeName="fill" to="#808080" begin="reset.mouseover" end="reset.mouseout"/>
                       </use>
               </g>
        </defs>

<script type="text/javascript">
var viewWidth = 382;
var viewHeight = 1320;
var sectionId = 'dynsection-14';
</script>
<script xlink:href="svgpan.js"/>
<svg id="graph" class="graph">
<g id="viewport">
<title>umat</title>
<!-- Node1 -->
<g id="node1" class="node"><title>Node1</title>
<polygon fill="#bfbfbf" stroke="black" points="0,-646.5 0,-665.5 42,-665.5 42,-646.5 0,-646.5"/>
<text text-anchor="middle" x="21" y="-653.5" font-family="Helvetica,sans-Serif" font-size="10.00">umat</text>
</g>
<!-- Node2 -->
<g id="node2" class="node"><title>Node2</title>
<g id="a_node2"><a xlink:href="identity__tensors_8for.html#a03fd2442d72065c8a2c3cfb10467ceb6" target="_top" xlink:title="onem">
<polygon fill="none" stroke="black" points="104.5,-1292.5 104.5,-1311.5 148.5,-1311.5 148.5,-1292.5 104.5,-1292.5"/>
<text text-anchor="middle" x="126.5" y="-1299.5" font-family="Helvetica,sans-Serif" font-size="10.00">onem</text>
</a>
</g>
</g>
<!-- Node1&#45;&gt;Node2 -->
<g id="edge1" class="edge"><title>Node1&#45;&gt;Node2</title>
<path fill="none" stroke="midnightblue" d="M22.2672,-665.936C24.3941,-742.059 39.5094,-1231.27 78,-1283 82.2034,-1288.65 88.359,-1292.62 94.8545,-1295.41"/>
<polygon fill="midnightblue" stroke="midnightblue" points="93.8317,-1298.76 104.426,-1298.72 96.1162,-1292.15 93.8317,-1298.76"/>
</g>
<!-- Node3 -->
<g id="node3" class="node"><title>Node3</title>
<g id="a_node3"><a xlink:href="initialize_8for.html#afb6af130004528dffe465dd6b0c53894" target="_top" xlink:title="initialize">
<polygon fill="none" stroke="black" points="99,-1254.5 99,-1273.5 154,-1273.5 154,-1254.5 99,-1254.5"/>
<text text-anchor="middle" x="126.5" y="-1261.5" font-family="Helvetica,sans-Serif" font-size="10.00">initialize</text>
</a>
</g>
</g>
<!-- Node1&#45;&gt;Node3 -->
<g id="edge2" class="edge"><title>Node1&#45;&gt;Node3</title>
<path fill="none" stroke="midnightblue" d="M22.3226,-665.795C24.8058,-738.801 41.7613,-1196.58 78,-1245 80.9705,-1248.97 84.9035,-1252.11 89.2381,-1254.6"/>
<polygon fill="midnightblue" stroke="midnightblue" points="87.9695,-1257.86 98.5199,-1258.83 90.8769,-1251.5 87.9695,-1257.86"/>
</g>
<!-- Node4 -->
<g id="node4" class="node"><title>Node4</title>
<g id="a_node4"><a xlink:href="sdvread_8for.html#aac71ab9ddec68cb5a041a5bfe955190f" target="_top" xlink:title="sdvread">
<polygon fill="none" stroke="black" points="99,-1216.5 99,-1235.5 154,-1235.5 154,-1216.5 99,-1216.5"/>
<text text-anchor="middle" x="126.5" y="-1223.5" font-family="Helvetica,sans-Serif" font-size="10.00">sdvread</text>
</a>
</g>
</g>
<!-- Node1&#45;&gt;Node4 -->
<g id="edge3" class="edge"><title>Node1&#45;&gt;Node4</title>
<path fill="none" stroke="midnightblue" d="M22.3824,-665.604C25.233,-735.289 44.003,-1161.89 78,-1207 80.9833,-1210.96 84.9236,-1214.09 89.2617,-1216.58"/>
<polygon fill="midnightblue" stroke="midnightblue" points="87.9953,-1219.85 98.546,-1220.81 90.901,-1213.48 87.9953,-1219.85"/>
</g>
<!-- Node5 -->
<g id="node5" class="node"><title>Node5</title>
<g id="a_node5"><a xlink:href="fslip_8for.html#ad2335e079bf9907ca25a55c19e01c333" target="_top" xlink:title="fslip">
<polygon fill="none" stroke="black" points="109,-1178.5 109,-1197.5 144,-1197.5 144,-1178.5 109,-1178.5"/>
<text text-anchor="middle" x="126.5" y="-1185.5" font-family="Helvetica,sans-Serif" font-size="10.00">fslip</text>
</a>
</g>
</g>
<!-- Node1&#45;&gt;Node5 -->
<g id="edge4" class="edge"><title>Node1&#45;&gt;Node5</title>
<path fill="none" stroke="midnightblue" d="M21.8483,-665.508C21.0253,-727.918 19.0912,-1079.06 78,-1164 83.091,-1171.34 91.1121,-1176.56 99.1238,-1180.21"/>
<polygon fill="midnightblue" stroke="midnightblue" points="98.1052,-1183.57 108.694,-1183.93 100.639,-1177.05 98.1052,-1183.57"/>
</g>
<!-- Node6 -->
<g id="node6" class="node"><title>Node6</title>
<g id="a_node6"><a xlink:href="minverse3d_8for.html#a57fcae0e55c917727e5a5e824f445f4e" target="_top" xlink:title="matinv3d">
<polygon fill="none" stroke="black" points="221.5,-1045.5 221.5,-1064.5 283.5,-1064.5 283.5,-1045.5 221.5,-1045.5"/>
<text text-anchor="middle" x="252.5" y="-1052.5" font-family="Helvetica,sans-Serif" font-size="10.00">matinv3d</text>
</a>
</g>
</g>
<!-- Node1&#45;&gt;Node6 -->
<g id="edge5" class="edge"><title>Node1&#45;&gt;Node6</title>
<path fill="none" stroke="midnightblue" d="M22.3822,-665.616C25.0433,-730.166 41.7738,-1098.79 78,-1131 110.219,-1159.64 135.144,-1147.43 175,-1131 203.28,-1119.34 226.624,-1091.6 239.813,-1073.06"/>
<polygon fill="midnightblue" stroke="midnightblue" points="242.859,-1074.81 245.603,-1064.57 237.076,-1070.86 242.859,-1074.81"/>
</g>
<!-- Node7 -->
<g id="node7" class="node"><title>Node7</title>
<g id="a_node7"><a xlink:href="deformation_8for.html#ab2dc1e77c2638cdfcf26b771842db2b7" target="_top" xlink:title="deformation">
<polygon fill="none" stroke="black" points="89,-874.5 89,-893.5 164,-893.5 164,-874.5 89,-874.5"/>
<text text-anchor="middle" x="126.5" y="-881.5" font-family="Helvetica,sans-Serif" font-size="10.00">deformation</text>
</a>
</g>
</g>
<!-- Node1&#45;&gt;Node7 -->
<g id="edge6" class="edge"><title>Node1&#45;&gt;Node7</title>
<path fill="none" stroke="midnightblue" d="M21.723,-665.718C21.3258,-698.239 24.3796,-804.604 78,-865 79.1757,-866.324 80.4563,-867.557 81.8185,-868.706"/>
<polygon fill="midnightblue" stroke="midnightblue" points="80.0868,-871.758 90.3476,-874.397 83.9723,-865.935 80.0868,-871.758"/>
</g>
<!-- Node8 -->
<g id="node8" class="node"><title>Node8</title>
<g id="a_node8"><a xlink:href="fibdir_8for.html#ad4f956d16c26f610a5b52ef9c9da3cf0" target="_top" xlink:title="fibdir">
<polygon fill="none" stroke="black" points="106.5,-836.5 106.5,-855.5 146.5,-855.5 146.5,-836.5 106.5,-836.5"/>
<text text-anchor="middle" x="126.5" y="-843.5" font-family="Helvetica,sans-Serif" font-size="10.00">fibdir</text>
</a>
</g>
</g>
<!-- Node1&#45;&gt;Node8 -->
<g id="edge7" class="edge"><title>Node1&#45;&gt;Node8</title>
<path fill="none" stroke="midnightblue" d="M22.4028,-665.537C24.1043,-693.932 32.9074,-778.924 78,-827 82.9805,-832.31 89.6414,-836.168 96.396,-838.958"/>
<polygon fill="midnightblue" stroke="midnightblue" points="95.5797,-842.379 106.174,-842.329 97.8608,-835.761 95.5797,-842.379"/>
</g>
<!-- Node9 -->
<g id="node9" class="node"><title>Node9</title>
<g id="a_node9"><a xlink:href="invariants_8for.html#a2c2c5ef734d284a0f4a38320eb18e267" target="_top" xlink:title="invariants">
<polygon fill="none" stroke="black" points="95,-798.5 95,-817.5 158,-817.5 158,-798.5 95,-798.5"/>
<text text-anchor="middle" x="126.5" y="-805.5" font-family="Helvetica,sans-Serif" font-size="10.00">invariants</text>
</a>
</g>
</g>
<!-- Node1&#45;&gt;Node9 -->
<g id="edge8" class="edge"><title>Node1&#45;&gt;Node9</title>
<path fill="none" stroke="midnightblue" d="M23.4795,-665.8C27.626,-689.995 41.5362,-753.187 78,-789 80.3446,-791.303 83.0037,-793.337 85.8374,-795.132"/>
<polygon fill="midnightblue" stroke="midnightblue" points="84.2459,-798.249 94.7225,-799.828 87.5172,-792.061 84.2459,-798.249"/>
</g>
<!-- Node10 -->
<g id="node10" class="node"><title>Node10</title>
<g id="a_node10"><a xlink:href="pinvariants_8for.html#aaaa7b07924c642fe785a9a8dc96e885e" target="_top" xlink:title="pinvariants">
<polygon fill="none" stroke="black" points="92,-760.5 92,-779.5 161,-779.5 161,-760.5 92,-760.5"/>
<text text-anchor="middle" x="126.5" y="-767.5" font-family="Helvetica,sans-Serif" font-size="10.00">pinvariants</text>
</a>
</g>
</g>
<!-- Node1&#45;&gt;Node10 -->
<g id="edge9" class="edge"><title>Node1&#45;&gt;Node10</title>
<path fill="none" stroke="midnightblue" d="M25.3038,-665.761C32.1891,-684.726 49.8168,-726.809 78,-751 79.946,-752.67 82.0574,-754.206 84.272,-755.615"/>
<polygon fill="midnightblue" stroke="midnightblue" points="82.7341,-758.763 93.1942,-760.447 86.0675,-752.607 82.7341,-758.763"/>
</g>
<!-- Node11 -->
<g id="node11" class="node"><title>Node11</title>
<g id="a_node11"><a xlink:href="stretch_8for.html#a35c9d800d4cdf46135fd6fe61edb5fa2" target="_top" xlink:title="stretch">
<polygon fill="none" stroke="black" points="101.5,-722.5 101.5,-741.5 151.5,-741.5 151.5,-722.5 101.5,-722.5"/>
<text text-anchor="middle" x="126.5" y="-729.5" font-family="Helvetica,sans-Serif" font-size="10.00">stretch</text>
</a>
</g>
</g>
<!-- Node1&#45;&gt;Node11 -->
<g id="edge10" class="edge"><title>Node1&#45;&gt;Node11</title>
<path fill="none" stroke="midnightblue" d="M29.3715,-665.681C39.2575,-678.098 57.9073,-699.623 78,-713 82.325,-715.879 87.1538,-718.435 92.0302,-720.664"/>
<polygon fill="midnightblue" stroke="midnightblue" points="90.7698,-723.931 101.347,-724.549 93.4638,-717.47 90.7698,-723.931"/>
</g>
<!-- Node15 -->
<g id="node15" class="node"><title>Node15</title>
<g id="a_node15"><a xlink:href="rotation_8for.html#a75b4b6ad5b953d7b49af0362930cac42" target="_top" xlink:title="rotation">
<polygon fill="none" stroke="black" points="99.5,-1102.5 99.5,-1121.5 153.5,-1121.5 153.5,-1102.5 99.5,-1102.5"/>
<text text-anchor="middle" x="126.5" y="-1109.5" font-family="Helvetica,sans-Serif" font-size="10.00">rotation</text>
</a>
</g>
</g>
<!-- Node1&#45;&gt;Node15 -->
<g id="edge14" class="edge"><title>Node1&#45;&gt;Node15</title>
<path fill="none" stroke="midnightblue" d="M21.9504,-665.69C21.8397,-723.541 23.9135,-1023.15 78,-1093 81.181,-1097.11 85.3886,-1100.33 89.9876,-1102.86"/>
<polygon fill="midnightblue" stroke="midnightblue" points="88.5857,-1106.07 99.1466,-1106.91 91.4187,-1099.66 88.5857,-1106.07"/>
</g>
<!-- Node16 -->
<g id="node16" class="node"><title>Node16</title>
<g id="a_node16"><a xlink:href="proj__eulerian_8for.html#a6c4553cadb8482a8d0484d6d8ff5da18" target="_top" xlink:title="projeul">
<polygon fill="none" stroke="black" points="102,-684.5 102,-703.5 151,-703.5 151,-684.5 102,-684.5"/>
<text text-anchor="middle" x="126.5" y="-691.5" font-family="Helvetica,sans-Serif" font-size="10.00">projeul</text>
</a>
</g>
</g>
<!-- Node1&#45;&gt;Node16 -->
<g id="edge16" class="edge"><title>Node1&#45;&gt;Node16</title>
<path fill="none" stroke="midnightblue" d="M42.4483,-663.508C56.5964,-668.702 75.7445,-675.732 92.0892,-681.733"/>
<polygon fill="midnightblue" stroke="midnightblue" points="91.2405,-685.15 101.834,-685.311 93.6531,-678.579 91.2405,-685.15"/>
</g>
<!-- Node17 -->
<g id="node17" class="node"><title>Node17</title>
<g id="a_node17"><a xlink:href="proj__lagrangian_8for.html#ad4a855453319c895aa447c6517605e4a" target="_top" xlink:title="projlag">
<polygon fill="none" stroke="black" points="102,-1064.5 102,-1083.5 151,-1083.5 151,-1064.5 102,-1064.5"/>
<text text-anchor="middle" x="126.5" y="-1071.5" font-family="Helvetica,sans-Serif" font-size="10.00">projlag</text>
</a>
</g>
</g>
<!-- Node1&#45;&gt;Node17 -->
<g id="edge17" class="edge"><title>Node1&#45;&gt;Node17</title>
<path fill="none" stroke="midnightblue" d="M22.0798,-665.552C22.7165,-720.072 28.3709,-991.692 78,-1055 81.721,-1059.75 86.8102,-1063.31 92.2798,-1065.99"/>
<polygon fill="midnightblue" stroke="midnightblue" points="91.0835,-1069.28 101.67,-1069.71 93.6603,-1062.77 91.0835,-1069.28"/>
</g>
<!-- Node18 -->
<g id="node18" class="node"><title>Node18</title>
<g id="a_node18"><a xlink:href="vol_8for.html#abb3cf83c99202d92dfb8df710243dc63" target="_top" xlink:title="vol">
<polygon fill="none" stroke="black" points="111.5,-646.5 111.5,-665.5 141.5,-665.5 141.5,-646.5 111.5,-646.5"/>
<text text-anchor="middle" x="126.5" y="-653.5" font-family="Helvetica,sans-Serif" font-size="10.00">vol</text>
</a>
</g>
</g>
<!-- Node1&#45;&gt;Node18 -->
<g id="edge19" class="edge"><title>Node1&#45;&gt;Node18</title>
<path fill="none" stroke="midnightblue" d="M42.4483,-656C59.3285,-656 83.326,-656 101.188,-656"/>
<polygon fill="midnightblue" stroke="midnightblue" points="101.398,-659.5 111.398,-656 101.398,-652.5 101.398,-659.5"/>
</g>
<!-- Node19 -->
<g id="node19" class="node"><title>Node19</title>
<g id="a_node19"><a xlink:href="isomat_8for.html#a89e735191fd44d7e7535605f29e52600" target="_top" xlink:title="isomat">
<polygon fill="none" stroke="black" points="101.5,-608.5 101.5,-627.5 151.5,-627.5 151.5,-608.5 101.5,-608.5"/>
<text text-anchor="middle" x="126.5" y="-615.5" font-family="Helvetica,sans-Serif" font-size="10.00">isomat</text>
</a>
</g>
</g>
<!-- Node1&#45;&gt;Node19 -->
<g id="edge20" class="edge"><title>Node1&#45;&gt;Node19</title>
<path fill="none" stroke="midnightblue" d="M42.4483,-648.492C56.4988,-643.334 75.4806,-636.365 91.7506,-630.391"/>
<polygon fill="midnightblue" stroke="midnightblue" points="93.2813,-633.558 101.462,-626.825 90.8687,-626.986 93.2813,-633.558"/>
</g>
<!-- Node20 -->
<g id="node20" class="node"><title>Node20</title>
<g id="a_node20"><a xlink:href="anisomat_8for.html#afa561bbd538fbcb594d34258412f5db5" target="_top" xlink:title="anisomat">
<polygon fill="none" stroke="black" points="95.5,-570.5 95.5,-589.5 157.5,-589.5 157.5,-570.5 95.5,-570.5"/>
<text text-anchor="middle" x="126.5" y="-577.5" font-family="Helvetica,sans-Serif" font-size="10.00">anisomat</text>
</a>
</g>
</g>
<!-- Node1&#45;&gt;Node20 -->
<g id="edge21" class="edge"><title>Node1&#45;&gt;Node20</title>
<path fill="none" stroke="midnightblue" d="M29.3715,-646.319C39.2575,-633.902 57.9073,-612.377 78,-599 80.7355,-597.179 83.6725,-595.487 86.6956,-593.926"/>
<polygon fill="midnightblue" stroke="midnightblue" points="88.3225,-597.029 95.9079,-589.632 85.3654,-590.684 88.3225,-597.029"/>
</g>
<!-- Node21 -->
<g id="node21" class="node"><title>Node21</title>
<g id="a_node21"><a xlink:href="pk2isomatfic_8for.html#ade33b1396cbfc5dbb036ee5f6048e9a6" target="_top" xlink:title="pk2isomatfic">
<polygon fill="none" stroke="black" points="88,-532.5 88,-551.5 165,-551.5 165,-532.5 88,-532.5"/>
<text text-anchor="middle" x="126.5" y="-539.5" font-family="Helvetica,sans-Serif" font-size="10.00">pk2isomatfic</text>
</a>
</g>
</g>
<!-- Node1&#45;&gt;Node21 -->
<g id="edge22" class="edge"><title>Node1&#45;&gt;Node21</title>
<path fill="none" stroke="midnightblue" d="M25.3038,-646.239C32.1891,-627.274 49.8168,-585.191 78,-561 79.946,-559.33 82.0574,-557.794 84.272,-556.385"/>
<polygon fill="midnightblue" stroke="midnightblue" points="86.0675,-559.393 93.1942,-551.553 82.7341,-553.237 86.0675,-559.393"/>
</g>
<!-- Node22 -->
<g id="node22" class="node"><title>Node22</title>
<g id="a_node22"><a xlink:href="sigisomatfic_8for.html#a5dc6369258e0cde9daee2a9ccec7972a" target="_top" xlink:title="sigisomatfic">
<polygon fill="none" stroke="black" points="89.5,-456.5 89.5,-475.5 163.5,-475.5 163.5,-456.5 89.5,-456.5"/>
<text text-anchor="middle" x="126.5" y="-463.5" font-family="Helvetica,sans-Serif" font-size="10.00">sigisomatfic</text>
</a>
</g>
</g>
<!-- Node1&#45;&gt;Node22 -->
<g id="edge23" class="edge"><title>Node1&#45;&gt;Node22</title>
<path fill="none" stroke="midnightblue" d="M22.7594,-646.126C25.3869,-618.28 36.3645,-538.035 78,-490 81.162,-486.352 85.0119,-483.193 89.1373,-480.476"/>
<polygon fill="midnightblue" stroke="midnightblue" points="90.9057,-483.497 97.86,-475.504 87.439,-477.416 90.9057,-483.497"/>
</g>
<!-- Node23 -->
<g id="node23" class="node"><title>Node23</title>
<g id="a_node23"><a xlink:href="push2_8for.html#acb1875b4820cb25bf65814b33f47cf99" target="_top" xlink:title="push2">
<polygon fill="none" stroke="black" points="229.5,-475.5 229.5,-494.5 275.5,-494.5 275.5,-475.5 229.5,-475.5"/>
<text text-anchor="middle" x="252.5" y="-482.5" font-family="Helvetica,sans-Serif" font-size="10.00">push2</text>
</a>
</g>
</g>
<!-- Node1&#45;&gt;Node23 -->
<g id="edge29" class="edge"><title>Node1&#45;&gt;Node23</title>
<path fill="none" stroke="midnightblue" d="M23.0812,-646.179C26.3589,-621.374 38.5182,-555.848 78,-523 118.192,-489.56 181.256,-483.747 219.262,-483.634"/>
<polygon fill="midnightblue" stroke="midnightblue" points="219.242,-487.134 229.277,-483.735 219.313,-480.134 219.242,-487.134"/>
</g>
<!-- Node24 -->
<g id="node24" class="node"><title>Node24</title>
<g id="a_node24"><a xlink:href="cmatisomatfic_8for.html#aefae10fd7e02adb2b87c090a42bb1baa" target="_top" xlink:title="cmatisomatfic">
<polygon fill="none" stroke="black" points="84,-418.5 84,-437.5 169,-437.5 169,-418.5 84,-418.5"/>
<text text-anchor="middle" x="126.5" y="-425.5" font-family="Helvetica,sans-Serif" font-size="10.00">cmatisomatfic</text>
</a>
</g>
</g>
<!-- Node1&#45;&gt;Node24 -->
<g id="edge25" class="edge"><title>Node1&#45;&gt;Node24</title>
<path fill="none" stroke="midnightblue" d="M21.723,-646.282C21.3258,-613.761 24.3796,-507.396 78,-447 79.1757,-445.676 80.4563,-444.443 81.8185,-443.294"/>
<polygon fill="midnightblue" stroke="midnightblue" points="83.9723,-446.065 90.3476,-437.603 80.0868,-440.242 83.9723,-446.065"/>
</g>
<!-- Node25 -->
<g id="node25" class="node"><title>Node25</title>
<g id="a_node25"><a xlink:href="cisomatfic_8for.html#a9bae2c893581a5ef032c8e109eb1ea0c" target="_top" xlink:title="csisomatfic">
<polygon fill="none" stroke="black" points="91,-342.5 91,-361.5 162,-361.5 162,-342.5 91,-342.5"/>
<text text-anchor="middle" x="126.5" y="-349.5" font-family="Helvetica,sans-Serif" font-size="10.00">csisomatfic</text>
</a>
</g>
</g>
<!-- Node1&#45;&gt;Node25 -->
<g id="edge26" class="edge"><title>Node1&#45;&gt;Node25</title>
<path fill="none" stroke="midnightblue" d="M22.805,-646.337C26.6439,-602.233 44.3159,-420.294 78,-376 80.6426,-372.525 83.9279,-369.515 87.5285,-366.917"/>
<polygon fill="midnightblue" stroke="midnightblue" points="89.6066,-369.751 96.3485,-361.578 85.9813,-363.763 89.6066,-369.751"/>
</g>
<!-- Node26 -->
<g id="node26" class="node"><title>Node26</title>
<g id="a_node26"><a xlink:href="push4_8for.html#a8eaa214e9279f4ea3fa90ff3c0e85f31" target="_top" xlink:title="push4">
<polygon fill="none" stroke="black" points="229.5,-361.5 229.5,-380.5 275.5,-380.5 275.5,-361.5 229.5,-361.5"/>
<text text-anchor="middle" x="252.5" y="-368.5" font-family="Helvetica,sans-Serif" font-size="10.00">push4</text>
</a>
</g>
</g>
<!-- Node1&#45;&gt;Node26 -->
<g id="edge32" class="edge"><title>Node1&#45;&gt;Node26</title>
<path fill="none" stroke="midnightblue" d="M22.8172,-646.467C26.5366,-605.329 43.2059,-443.54 78,-409 97.6012,-389.542 174.727,-378.709 219.272,-373.957"/>
<polygon fill="midnightblue" stroke="midnightblue" points="219.719,-377.43 229.311,-372.931 219.007,-370.466 219.719,-377.43"/>
</g>
<!-- Node27 -->
<g id="node27" class="node"><title>Node27</title>
<g id="a_node27"><a xlink:href="pk2anisomatfic_8for.html#a73340e181ab9536885f6db31839ba564" target="_top" xlink:title="pk2anisomatfic">
<polygon fill="none" stroke="black" points="82,-304.5 82,-323.5 171,-323.5 171,-304.5 82,-304.5"/>
<text text-anchor="middle" x="126.5" y="-311.5" font-family="Helvetica,sans-Serif" font-size="10.00">pk2anisomatfic</text>
</a>
</g>
</g>
<!-- Node1&#45;&gt;Node27 -->
<g id="edge28" class="edge"><title>Node1&#45;&gt;Node27</title>
<path fill="none" stroke="midnightblue" d="M22.4275,-646.436C24.7553,-598.336 37.3332,-383.188 78,-333 78.9785,-331.792 80.0452,-330.661 81.1835,-329.601"/>
<polygon fill="midnightblue" stroke="midnightblue" points="83.4722,-332.267 89.558,-323.594 79.3922,-326.579 83.4722,-332.267"/>
</g>
<!-- Node28 -->
<g id="node28" class="node"><title>Node28</title>
<g id="a_node28"><a xlink:href="cmatanisomatfic_8for.html#ac0fc260602607e54e92d94a58fb2594d" target="_top" xlink:title="cmatanisomatfic">
<polygon fill="none" stroke="black" points="78,-266.5 78,-285.5 175,-285.5 175,-266.5 78,-266.5"/>
<text text-anchor="middle" x="126.5" y="-273.5" font-family="Helvetica,sans-Serif" font-size="10.00">cmatanisomatfic</text>
</a>
</g>
</g>
<!-- Node1&#45;&gt;Node28 -->
<g id="edge30" class="edge"><title>Node1&#45;&gt;Node28</title>
<path fill="none" stroke="midnightblue" d="M22.2379,-646.361C23.6921,-594.789 32.8839,-351.702 78,-295 78.9678,-293.784 80.0252,-292.645 81.1555,-291.579"/>
<polygon fill="midnightblue" stroke="midnightblue" points="83.4457,-294.242 89.4949,-285.544 79.3417,-288.571 83.4457,-294.242"/>
</g>
<!-- Node30 -->
<g id="node30" class="node"><title>Node30</title>
<g id="a_node30"><a xlink:href="pk2vol_8for.html#ac9029238abb007c001f636e497ee0ac7" target="_top" xlink:title="pk2vol">
<polygon fill="none" stroke="black" points="103,-1026.5 103,-1045.5 150,-1045.5 150,-1026.5 103,-1026.5"/>
<text text-anchor="middle" x="126.5" y="-1033.5" font-family="Helvetica,sans-Serif" font-size="10.00">pk2vol</text>
</a>
</g>
</g>
<!-- Node1&#45;&gt;Node30 -->
<g id="edge33" class="edge"><title>Node1&#45;&gt;Node30</title>
<path fill="none" stroke="midnightblue" d="M22.2379,-665.639C23.6921,-717.211 32.8839,-960.298 78,-1017 81.8969,-1021.9 87.2477,-1025.54 92.9566,-1028.24"/>
<polygon fill="midnightblue" stroke="midnightblue" points="92.1183,-1031.67 102.709,-1031.97 94.6163,-1025.13 92.1183,-1031.67"/>
</g>
<!-- Node31 -->
<g id="node31" class="node"><title>Node31</title>
<g id="a_node31"><a xlink:href="sigvol_8for.html#a8d289ee29f4702d72fb71cb2d89c6f12" target="_top" xlink:title="sigvol">
<polygon fill="none" stroke="black" points="104.5,-228.5 104.5,-247.5 148.5,-247.5 148.5,-228.5 104.5,-228.5"/>
<text text-anchor="middle" x="126.5" y="-235.5" font-family="Helvetica,sans-Serif" font-size="10.00">sigvol</text>
</a>
</g>
</g>
<!-- Node1&#45;&gt;Node31 -->
<g id="edge35" class="edge"><title>Node1&#45;&gt;Node31</title>
<path fill="none" stroke="midnightblue" d="M22.0798,-646.448C22.7165,-591.928 28.3709,-320.308 78,-257 82.1714,-251.679 88.0621,-247.842 94.2808,-245.078"/>
<polygon fill="midnightblue" stroke="midnightblue" points="95.8862,-248.221 104.123,-241.557 93.5284,-241.63 95.8862,-248.221"/>
</g>
<!-- Node32 -->
<g id="node32" class="node"><title>Node32</title>
<g id="a_node32"><a xlink:href="pk2iso_8for.html#a525f2295f9830b95a6b5ce67d04ea1eb" target="_top" xlink:title="pk2iso">
<polygon fill="none" stroke="black" points="103,-190.5 103,-209.5 150,-209.5 150,-190.5 103,-190.5"/>
<text text-anchor="middle" x="126.5" y="-197.5" font-family="Helvetica,sans-Serif" font-size="10.00">pk2iso</text>
</a>
</g>
</g>
<!-- Node1&#45;&gt;Node32 -->
<g id="edge36" class="edge"><title>Node1&#45;&gt;Node32</title>
<path fill="none" stroke="midnightblue" d="M21.9504,-646.31C21.8397,-588.459 23.9135,-288.852 78,-219 81.8318,-214.051 87.1533,-210.387 92.854,-207.676"/>
<polygon fill="midnightblue" stroke="midnightblue" points="94.5147,-210.788 102.61,-203.953 92.019,-204.248 94.5147,-210.788"/>
</g>
<!-- Node34 -->
<g id="node34" class="node"><title>Node34</title>
<g id="a_node34"><a xlink:href="sigiso_8for.html#a922e87c5383e6f4d45517c30608b0bda" target="_top" xlink:title="sigiso">
<polygon fill="none" stroke="black" points="104.5,-152.5 104.5,-171.5 148.5,-171.5 148.5,-152.5 104.5,-152.5"/>
<text text-anchor="middle" x="126.5" y="-159.5" font-family="Helvetica,sans-Serif" font-size="10.00">sigiso</text>
</a>
</g>
</g>
<!-- Node1&#45;&gt;Node34 -->
<g id="edge38" class="edge"><title>Node1&#45;&gt;Node34</title>
<path fill="none" stroke="midnightblue" d="M21.8395,-646.274C21.023,-585.448 19.4145,-257.457 78,-181 82.1124,-175.633 87.9792,-171.778 94.1934,-169.01"/>
<polygon fill="midnightblue" stroke="midnightblue" points="95.801,-172.153 104.042,-165.495 93.4477,-165.56 95.801,-172.153"/>
</g>
<!-- Node35 -->
<g id="node35" class="node"><title>Node35</title>
<g id="a_node35"><a xlink:href="metvol_8for.html#af4851b40ff9da9c702d8d02257ee2d41" target="_top" xlink:title="metvol">
<polygon fill="none" stroke="black" points="101.5,-988.5 101.5,-1007.5 151.5,-1007.5 151.5,-988.5 101.5,-988.5"/>
<text text-anchor="middle" x="126.5" y="-995.5" font-family="Helvetica,sans-Serif" font-size="10.00">metvol</text>
</a>
</g>
</g>
<!-- Node1&#45;&gt;Node35 -->
<g id="edge40" class="edge"><title>Node1&#45;&gt;Node35</title>
<path fill="none" stroke="midnightblue" d="M22.4275,-665.564C24.7553,-713.664 37.3332,-928.812 78,-979 81.6345,-983.485 86.4856,-986.918 91.7012,-989.543"/>
<polygon fill="midnightblue" stroke="midnightblue" points="90.7172,-992.922 101.299,-993.45 93.3562,-986.438 90.7172,-992.922"/>
</g>
<!-- Node36 -->
<g id="node36" class="node"><title>Node36</title>
<g id="a_node36"><a xlink:href="metiso_8for.html#adfb372f50c7b7ab0bbc5abad87205763" target="_top" xlink:title="metiso">
<polygon fill="none" stroke="black" points="101.5,-950.5 101.5,-969.5 151.5,-969.5 151.5,-950.5 101.5,-950.5"/>
<text text-anchor="middle" x="126.5" y="-957.5" font-family="Helvetica,sans-Serif" font-size="10.00">metiso</text>
</a>
</g>
</g>
<!-- Node1&#45;&gt;Node36 -->
<g id="edge42" class="edge"><title>Node1&#45;&gt;Node36</title>
<path fill="none" stroke="midnightblue" d="M22.672,-665.604C25.9732,-710.267 41.796,-897.326 78,-941 81.6844,-945.445 86.5601,-948.857 91.7846,-951.475"/>
<polygon fill="midnightblue" stroke="midnightblue" points="90.8016,-954.854 101.383,-955.381 93.4398,-948.37 90.8016,-954.854"/>
</g>
<!-- Node38 -->
<g id="node38" class="node"><title>Node38</title>
<g id="a_node38"><a xlink:href="setvol_8for.html#a85643b95cd69b75883847752822f61f4" target="_top" xlink:title="setvol">
<polygon fill="none" stroke="black" points="104,-114.5 104,-133.5 149,-133.5 149,-114.5 104,-114.5"/>
<text text-anchor="middle" x="126.5" y="-121.5" font-family="Helvetica,sans-Serif" font-size="10.00">setvol</text>
</a>
</g>
</g>
<!-- Node1&#45;&gt;Node38 -->
<g id="edge45" class="edge"><title>Node1&#45;&gt;Node38</title>
<path fill="none" stroke="midnightblue" d="M22.4673,-646.21C25.7633,-578.791 46.302,-184.739 78,-143 82.0187,-137.708 87.7452,-133.887 93.8381,-131.128"/>
<polygon fill="midnightblue" stroke="midnightblue" points="95.3181,-134.314 103.521,-127.609 92.9274,-127.735 95.3181,-134.314"/>
</g>
<!-- Node39 -->
<g id="node39" class="node"><title>Node39</title>
<g id="a_node39"><a xlink:href="setiso_8for.html#a684bfc6ac044f6740b76347b3ff89a24" target="_top" xlink:title="setiso">
<polygon fill="none" stroke="black" points="104,-912.5 104,-931.5 149,-931.5 149,-912.5 104,-912.5"/>
<text text-anchor="middle" x="126.5" y="-919.5" font-family="Helvetica,sans-Serif" font-size="10.00">setiso</text>
</a>
</g>
</g>
<!-- Node1&#45;&gt;Node39 -->
<g id="edge46" class="edge"><title>Node1&#45;&gt;Node39</title>
<path fill="none" stroke="midnightblue" d="M22.9943,-665.671C27.3851,-706.678 46.2399,-865.796 78,-903 82.3142,-908.054 88.1634,-911.776 94.2821,-914.514"/>
<polygon fill="midnightblue" stroke="midnightblue" points="93.3434,-917.898 103.937,-918.056 95.7541,-911.326 93.3434,-917.898"/>
</g>
<!-- Node40 -->
<g id="node40" class="node"><title>Node40</title>
<g id="a_node40"><a xlink:href="setjr_8for.html#a4501b4a0d0a60316eab4a804e36a3385" target="_top" xlink:title="setjr">
<polygon fill="none" stroke="black" points="107.5,-76.5 107.5,-95.5 145.5,-95.5 145.5,-76.5 107.5,-76.5"/>
<text text-anchor="middle" x="126.5" y="-83.5" font-family="Helvetica,sans-Serif" font-size="10.00">setjr</text>
</a>
</g>
</g>
<!-- Node1&#45;&gt;Node40 -->
<g id="edge48" class="edge"><title>Node1&#45;&gt;Node40</title>
<path fill="none" stroke="midnightblue" d="M22.3824,-646.396C25.233,-576.711 44.003,-150.114 78,-105 82.8317,-98.5884 90.1732,-94.3358 97.6498,-91.5168"/>
<polygon fill="midnightblue" stroke="midnightblue" points="98.8012,-94.8252 107.357,-88.5759 96.7714,-88.1259 98.8012,-94.8252"/>
</g>
<!-- Node41 -->
<g id="node41" class="node"><title>Node41</title>
<g id="a_node41"><a xlink:href="index_8for.html#a08f48dba99892c8df390efd4490d66fa" target="_top" xlink:title="indexx">
<polygon fill="none" stroke="black" points="103,-38.5 103,-57.5 150,-57.5 150,-38.5 103,-38.5"/>
<text text-anchor="middle" x="126.5" y="-45.5" font-family="Helvetica,sans-Serif" font-size="10.00">indexx</text>
</a>
</g>
</g>
<!-- Node1&#45;&gt;Node41 -->
<g id="edge49" class="edge"><title>Node1&#45;&gt;Node41</title>
<path fill="none" stroke="midnightblue" d="M22.3226,-646.205C24.8058,-573.199 41.7613,-115.415 78,-67 81.9118,-61.7738 87.493,-57.9823 93.4623,-55.2326"/>
<polygon fill="midnightblue" stroke="midnightblue" points="94.8137,-58.4646 102.978,-51.7126 92.3851,-51.8993 94.8137,-58.4646"/>
</g>
<!-- Node42 -->
<g id="node42" class="node"><title>Node42</title>
<g id="a_node42"><a xlink:href="sdvwrite_8for.html#a10cc1dd858c5a3789ac6e12fcba396a0" target="_top" xlink:title="sdvwrite">
<polygon fill="none" stroke="black" points="98.5,-0.5 98.5,-19.5 154.5,-19.5 154.5,-0.5 98.5,-0.5"/>
<text text-anchor="middle" x="126.5" y="-7.5" font-family="Helvetica,sans-Serif" font-size="10.00">sdvwrite</text>
</a>
</g>
</g>
<!-- Node1&#45;&gt;Node42 -->
<g id="edge50" class="edge"><title>Node1&#45;&gt;Node42</title>
<path fill="none" stroke="midnightblue" d="M22.2672,-646.064C24.3941,-569.941 39.5094,-80.731 78,-29 80.9591,-25.023 84.8857,-21.8769 89.2173,-19.3886"/>
<polygon fill="midnightblue" stroke="midnightblue" points="90.8556,-22.4882 98.497,-15.1492 87.9468,-16.1212 90.8556,-22.4882"/>
</g>
<!-- Node12 -->
<g id="node12" class="node"><title>Node12</title>
<g id="a_node12"><a xlink:href="spectral_8for.html#a801551e9f01a5150209f80d289d6d41c" target="_top" xlink:title="spectral">
<polygon fill="none" stroke="black" points="225,-722.5 225,-741.5 280,-741.5 280,-722.5 225,-722.5"/>
<text text-anchor="middle" x="252.5" y="-729.5" font-family="Helvetica,sans-Serif" font-size="10.00">spectral</text>
</a>
</g>
</g>
<!-- Node11&#45;&gt;Node12 -->
<g id="edge11" class="edge"><title>Node11&#45;&gt;Node12</title>
<path fill="none" stroke="midnightblue" d="M151.703,-732C169.588,-732 194.26,-732 214.598,-732"/>
<polygon fill="midnightblue" stroke="midnightblue" points="214.779,-735.5 224.779,-732 214.779,-728.5 214.779,-735.5"/>
</g>
<!-- Node13 -->
<g id="node13" class="node"><title>Node13</title>
<g id="a_node13"><a xlink:href="spectral_8for.html#af30a892ec55877718024cfef2cee100e" target="_top" xlink:title="jacobi">
<polygon fill="none" stroke="black" points="330,-741.5 330,-760.5 374,-760.5 374,-741.5 330,-741.5"/>
<text text-anchor="middle" x="352" y="-748.5" font-family="Helvetica,sans-Serif" font-size="10.00">jacobi</text>
</a>
</g>
</g>
<!-- Node12&#45;&gt;Node13 -->
<g id="edge12" class="edge"><title>Node12&#45;&gt;Node13</title>
<path fill="none" stroke="midnightblue" d="M280.142,-737.192C292.388,-739.578 306.995,-742.425 319.756,-744.911"/>
<polygon fill="midnightblue" stroke="midnightblue" points="319.464,-748.42 329.949,-746.898 320.803,-741.55 319.464,-748.42"/>
</g>
<!-- Node14 -->
<g id="node14" class="node"><title>Node14</title>
<g id="a_node14"><a xlink:href="spectral_8for.html#a4cefa75528ebe8935b50d575c9042b3c" target="_top" xlink:title="eigsrt">
<polygon fill="none" stroke="black" points="330,-703.5 330,-722.5 374,-722.5 374,-703.5 330,-703.5"/>
<text text-anchor="middle" x="352" y="-710.5" font-family="Helvetica,sans-Serif" font-size="10.00">eigsrt</text>
</a>
</g>
</g>
<!-- Node12&#45;&gt;Node14 -->
<g id="edge13" class="edge"><title>Node12&#45;&gt;Node14</title>
<path fill="none" stroke="midnightblue" d="M280.142,-726.808C292.388,-724.422 306.995,-721.575 319.756,-719.089"/>
<polygon fill="midnightblue" stroke="midnightblue" points="320.803,-722.45 329.949,-717.102 319.464,-715.58 320.803,-722.45"/>
</g>
<!-- Node15&#45;&gt;Node6 -->
<g id="edge15" class="edge"><title>Node15&#45;&gt;Node6</title>
<path fill="none" stroke="midnightblue" d="M152.803,-1102.32C160.024,-1099.44 167.866,-1096.19 175,-1093 191.545,-1085.6 209.73,-1076.6 224.217,-1069.22"/>
<polygon fill="midnightblue" stroke="midnightblue" points="225.85,-1072.32 233.149,-1064.64 222.654,-1066.09 225.85,-1072.32"/>
</g>
<!-- Node17&#45;&gt;Node6 -->
<g id="edge18" class="edge"><title>Node17&#45;&gt;Node6</title>
<path fill="none" stroke="midnightblue" d="M151.115,-1070.38C168.109,-1067.78 191.446,-1064.2 211.343,-1061.15"/>
<polygon fill="midnightblue" stroke="midnightblue" points="212.027,-1064.59 221.382,-1059.61 210.967,-1057.67 212.027,-1064.59"/>
</g>
<!-- Node22&#45;&gt;Node23 -->
<g id="edge24" class="edge"><title>Node22&#45;&gt;Node23</title>
<path fill="none" stroke="midnightblue" d="M163.699,-471.547C181.34,-474.25 202.373,-477.473 219.43,-480.086"/>
<polygon fill="midnightblue" stroke="midnightblue" points="219.056,-483.57 229.471,-481.625 220.116,-476.65 219.056,-483.57"/>
</g>
<!-- Node25&#45;&gt;Node26 -->
<g id="edge27" class="edge"><title>Node25&#45;&gt;Node26</title>
<path fill="none" stroke="midnightblue" d="M162.041,-357.293C179.844,-360.02 201.433,-363.328 218.942,-366.011"/>
<polygon fill="midnightblue" stroke="midnightblue" points="218.832,-369.535 229.246,-367.59 219.892,-362.616 218.832,-369.535"/>
</g>
<!-- Node29 -->
<g id="node29" class="node"><title>Node29</title>
<g id="a_node29"><a xlink:href="tensorprod22_8for.html#ade4458c8350bdd937ff4405df54f6328" target="_top" xlink:title="tensorprod2">
<polygon fill="none" stroke="black" points="215,-266.5 215,-285.5 290,-285.5 290,-266.5 215,-266.5"/>
<text text-anchor="middle" x="252.5" y="-273.5" font-family="Helvetica,sans-Serif" font-size="10.00">tensorprod2</text>
</a>
</g>
</g>
<!-- Node28&#45;&gt;Node29 -->
<g id="edge31" class="edge"><title>Node28&#45;&gt;Node29</title>
<path fill="none" stroke="midnightblue" d="M175.087,-276C184.717,-276 194.838,-276 204.45,-276"/>
<polygon fill="midnightblue" stroke="midnightblue" points="204.632,-279.5 214.632,-276 204.632,-272.5 204.632,-279.5"/>
</g>
<!-- Node30&#45;&gt;Node6 -->
<g id="edge34" class="edge"><title>Node30&#45;&gt;Node6</title>
<path fill="none" stroke="midnightblue" d="M150.244,-1039.48C167.35,-1042.11 191.229,-1045.76 211.502,-1048.87"/>
<polygon fill="midnightblue" stroke="midnightblue" points="211.004,-1052.34 221.419,-1050.39 212.064,-1045.42 211.004,-1052.34"/>
</g>
<!-- Node33 -->
<g id="node33" class="node"><title>Node33</title>
<g id="a_node33"><a xlink:href="contraction42_8for.html#aad71a324137b3d597992a6ba4386bc1c" target="_top" xlink:title="contraction42">
<polygon fill="none" stroke="black" points="211,-171.5 211,-190.5 294,-190.5 294,-171.5 211,-171.5"/>
<text text-anchor="middle" x="252.5" y="-178.5" font-family="Helvetica,sans-Serif" font-size="10.00">contraction42</text>
</a>
</g>
</g>
<!-- Node32&#45;&gt;Node33 -->
<g id="edge37" class="edge"><title>Node32&#45;&gt;Node33</title>
<path fill="none" stroke="midnightblue" d="M150.244,-196.515C164.388,-194.348 183.162,-191.471 200.7,-188.784"/>
<polygon fill="midnightblue" stroke="midnightblue" points="201.484,-192.205 210.839,-187.23 200.424,-185.285 201.484,-192.205"/>
</g>
<!-- Node34&#45;&gt;Node33 -->
<g id="edge39" class="edge"><title>Node34&#45;&gt;Node33</title>
<path fill="none" stroke="midnightblue" d="M148.535,-165.223C162.877,-167.421 182.512,-170.429 200.792,-173.23"/>
<polygon fill="midnightblue" stroke="midnightblue" points="200.352,-176.704 210.766,-174.759 201.412,-169.784 200.352,-176.704"/>
</g>
<!-- Node35&#45;&gt;Node6 -->
<g id="edge41" class="edge"><title>Node35&#45;&gt;Node6</title>
<path fill="none" stroke="midnightblue" d="M151.822,-1007.29C159.309,-1010.27 167.541,-1013.66 175,-1017 191.545,-1024.4 209.73,-1033.4 224.217,-1040.78"/>
<polygon fill="midnightblue" stroke="midnightblue" points="222.654,-1043.91 233.149,-1045.36 225.85,-1037.68 222.654,-1043.91"/>
</g>
<!-- Node36&#45;&gt;Node6 -->
<g id="edge43" class="edge"><title>Node36&#45;&gt;Node6</title>
<path fill="none" stroke="midnightblue" d="M151.62,-967.501C159.413,-970.476 167.874,-974.318 175,-979 199.782,-995.283 223.183,-1020.51 237.425,-1037.38"/>
<polygon fill="midnightblue" stroke="midnightblue" points="234.934,-1039.86 243.996,-1045.35 240.334,-1035.41 234.934,-1039.86"/>
</g>
<!-- Node37 -->
<g id="node37" class="node"><title>Node37</title>
<g id="a_node37"><a xlink:href="contraction44_8for.html#ad99a62a07d01f333320f807d2c991a51" target="_top" xlink:title="contraction44">
<polygon fill="none" stroke="black" points="211,-931.5 211,-950.5 294,-950.5 294,-931.5 211,-931.5"/>
<text text-anchor="middle" x="252.5" y="-938.5" font-family="Helvetica,sans-Serif" font-size="10.00">contraction44</text>
</a>
</g>
</g>
<!-- Node36&#45;&gt;Node37 -->
<g id="edge44" class="edge"><title>Node36&#45;&gt;Node37</title>
<path fill="none" stroke="midnightblue" d="M151.703,-956.292C165.594,-954.163 183.579,-951.407 200.447,-948.823"/>
<polygon fill="midnightblue" stroke="midnightblue" points="201.405,-952.217 210.76,-947.242 200.345,-945.298 201.405,-952.217"/>
</g>
<!-- Node39&#45;&gt;Node37 -->
<g id="edge47" class="edge"><title>Node39&#45;&gt;Node37</title>
<path fill="none" stroke="midnightblue" d="M149.099,-925.31C163.377,-927.497 182.717,-930.461 200.745,-933.223"/>
<polygon fill="midnightblue" stroke="midnightblue" points="200.456,-936.72 210.871,-934.775 201.516,-929.8 200.456,-936.72"/>
</g>
</g>
</svg>
        <g id="navigator" transform="translate(0 0)" fill="#404254">
                <rect fill="#f2f5e9" fill-opacity="0.5" stroke="#606060" stroke-width=".5" x="0" y="0" width="60" height="60"/>
                <use id="zoomplus" xlink:href="#zoomPlus" x="17" y="9" onmousedown="handleZoom(evt,'in')"/>
                <use id="zoomminus" xlink:href="#zoomMin" x="42" y="9" onmousedown="handleZoom(evt,'out')"/>
                <use id="reset" xlink:href="#resetDef" x="30" y="36" onmousedown="handleReset()"/>
                <g id="arrowUp" xlink:href="#dirArrow" transform="translate(30 24)" onmousedown="handlePan(0,-1)">
                  <use xlink:href="#rim" fill="#404040">
                        <set attributeName="fill" to="#808080" begin="arrowUp.mouseover" end="arrowUp.mouseout"/>
                  </use>
                  <path fill="none" stroke="white" stroke-width="1.5" d="M0,-3.0v7 M-2.5,-0.5L0,-3.0L2.5,-0.5"/>
                </g>
                <g id="arrowRight" xlink:href="#dirArrow" transform="rotate(90) translate(36 -43)" onmousedown="handlePan(1,0)">
                  <use xlink:href="#rim" fill="#404040">
                        <set attributeName="fill" to="#808080" begin="arrowRight.mouseover" end="arrowRight.mouseout"/>
                  </use>
                  <path fill="none" stroke="white" stroke-width="1.5" d="M0,-3.0v7 M-2.5,-0.5L0,-3.0L2.5,-0.5"/>
                </g>
                <g id="arrowDown" xlink:href="#dirArrow" transform="rotate(180) translate(-30 -48)" onmousedown="handlePan(0,1)">
                  <use xlink:href="#rim" fill="#404040">
                        <set attributeName="fill" to="#808080" begin="arrowDown.mouseover" end="arrowDown.mouseout"/>
                  </use>
                  <path fill="none" stroke="white" stroke-width="1.5" d="M0,-3.0v7 M-2.5,-0.5L0,-3.0L2.5,-0.5"/>
                </g>
                <g id="arrowLeft" xlink:href="#dirArrow" transform="rotate(270) translate(-36 17)" onmousedown="handlePan(-1,0)">
                  <use xlink:href="#rim" fill="#404040">
                        <set attributeName="fill" to="#808080" begin="arrowLeft.mouseover" end="arrowLeft.mouseout"/>
                  </use>
                  <path fill="none" stroke="white" stroke-width="1.5" d="M0,-3.0v7 M-2.5,-0.5L0,-3.0L2.5,-0.5"/>
                </g>
        </g>
        <svg viewBox="0 0 15 15" width="100%" height="30px" preserveAspectRatio="xMaxYMin meet">
         <g id="arrow_out" transform="scale(0.3 0.3)">
          <a xlink:href="umat__general_8for_ade59a72c9e55c27de31535430ff6916e_cgraph_org.svg" target="_base">
           <rect id="button" ry="5" rx="5" y="6" x="6" height="38" width="38"
                fill="#f2f5e9" fill-opacity="0.5" stroke="#606060" stroke-width="1.0"/>
           <path id="arrow"
             d="M 11.500037,31.436501 C 11.940474,20.09759 22.043105,11.32322 32.158766,21.979434 L 37.068811,17.246167 C 37.068811,17.246167 37.088388,32 37.088388,32 L 22.160133,31.978069 C 22.160133,31.978069 26.997745,27.140456 26.997745,27.140456 C 18.528582,18.264221 13.291696,25.230495 11.500037,31.436501 z"
             style="fill:#404040;"/>
          </a>
         </g>
        </svg>
</svg>
