<?xml version="1.0" encoding="UTF-8" standalone="no"?>
<!DOCTYPE svg PUBLIC "-//W3C//DTD SVG 1.1//EN"
 "http://www.w3.org/Graphics/SVG/1.1/DTD/svg11.dtd">
<!-- Generated by graphviz version 2.38.0 (20140413.2041)
 -->
<!-- Title: spectral Pages: 1 -->
<svg width="143pt" height="66pt"
 viewBox="0.00 0.00 143.00 66.00" xmlns="http://www.w3.org/2000/svg" xmlns:xlink="http://www.w3.org/1999/xlink">
<g id="graph0" class="graph" transform="scale(1 1) rotate(0) translate(4 62)">
<title>spectral</title>
<!-- Node1 -->
<g id="node1" class="node"><title>Node1</title>
<polygon fill="#bfbfbf" stroke="black" points="0,-19.5 0,-38.5 55,-38.5 55,-19.5 0,-19.5"/>
<text text-anchor="middle" x="27.5" y="-26.5" font-family="Helvetica,sans-Serif" font-size="10.00">spectral</text>
</g>
<!-- Node2 -->
<g id="node2" class="node"><title>Node2</title>
<g id="a_node2"><a xlink:href="spectral_8for.html#af30a892ec55877718024cfef2cee100e" target="_top" xlink:title="jacobi">
<polygon fill="none" stroke="black" points="91,-38.5 91,-57.5 135,-57.5 135,-38.5 91,-38.5"/>
<text text-anchor="middle" x="113" y="-45.5" font-family="Helvetica,sans-Serif" font-size="10.00">jacobi</text>
</a>
</g>
</g>
<!-- Node1&#45;&gt;Node2 -->
<g id="edge1" class="edge"><title>Node1&#45;&gt;Node2</title>
<path fill="none" stroke="midnightblue" d="M55.3795,-35.1163C63.5819,-36.9827 72.6651,-39.0496 81.1111,-40.9714"/>
<polygon fill="midnightblue" stroke="midnightblue" points="80.4678,-44.4144 90.9951,-43.2204 82.0209,-37.5889 80.4678,-44.4144"/>
</g>
<!-- Node3 -->
<g id="node3" class="node"><title>Node3</title>
<g id="a_node3"><a xlink:href="spectral_8for.html#a4cefa75528ebe8935b50d575c9042b3c" target="_top" xlink:title="eigsrt">
<polygon fill="none" stroke="black" points="91,-0.5 91,-19.5 135,-19.5 135,-0.5 91,-0.5"/>
<text text-anchor="middle" x="113" y="-7.5" font-family="Helvetica,sans-Serif" font-size="10.00">eigsrt</text>
</a>
</g>
</g>
<!-- Node1&#45;&gt;Node3 -->
<g id="edge2" class="edge"><title>Node1&#45;&gt;Node3</title>
<path fill="none" stroke="midnightblue" d="M55.3795,-22.8837C63.5819,-21.0173 72.6651,-18.9504 81.1111,-17.0286"/>
<polygon fill="midnightblue" stroke="midnightblue" points="82.0209,-20.4111 90.9951,-14.7796 80.4678,-13.5856 82.0209,-20.4111"/>
</g>
</g>
</svg>
