<?xml version="1.0" encoding="UTF-8" standalone="no"?>
<!DOCTYPE svg PUBLIC "-//W3C//DTD SVG 1.1//EN"
 "http://www.w3.org/Graphics/SVG/1.1/DTD/svg11.dtd">
<!-- Generated by graphviz version 2.38.0 (20140413.2041)
 -->
<!-- Title: metiso Pages: 1 -->
<svg width="177pt" height="66pt"
 viewBox="0.00 0.00 177.00 66.00" xmlns="http://www.w3.org/2000/svg" xmlns:xlink="http://www.w3.org/1999/xlink">
<g id="graph0" class="graph" transform="scale(1 1) rotate(0) translate(4 62)">
<title>metiso</title>
<!-- Node1 -->
<g id="node1" class="node"><title>Node1</title>
<polygon fill="#bfbfbf" stroke="black" points="0,-19.5 0,-38.5 50,-38.5 50,-19.5 0,-19.5"/>
<text text-anchor="middle" x="25" y="-26.5" font-family="Helvetica,sans-Serif" font-size="10.00">metiso</text>
</g>
<!-- Node2 -->
<g id="node2" class="node"><title>Node2</title>
<g id="a_node2"><a xlink:href="minverse3d_8for.html#a57fcae0e55c917727e5a5e824f445f4e" target="_top" xlink:title="matinv3d">
<polygon fill="none" stroke="black" points="96.5,-38.5 96.5,-57.5 158.5,-57.5 158.5,-38.5 96.5,-38.5"/>
<text text-anchor="middle" x="127.5" y="-45.5" font-family="Helvetica,sans-Serif" font-size="10.00">matinv3d</text>
</a>
</g>
</g>
<!-- Node1&#45;&gt;Node2 -->
<g id="edge1" class="edge"><title>Node1&#45;&gt;Node2</title>
<path fill="none" stroke="midnightblue" d="M50.0723,-33.551C60.8697,-35.5923 73.9044,-38.0566 86.1274,-40.3674"/>
<polygon fill="midnightblue" stroke="midnightblue" points="85.6607,-43.8411 96.1369,-42.2597 86.9611,-36.9629 85.6607,-43.8411"/>
</g>
<!-- Node3 -->
<g id="node3" class="node"><title>Node3</title>
<g id="a_node3"><a xlink:href="contraction44_8for.html#ad99a62a07d01f333320f807d2c991a51" target="_top" xlink:title="contraction44">
<polygon fill="none" stroke="black" points="86,-0.5 86,-19.5 169,-19.5 169,-0.5 86,-0.5"/>
<text text-anchor="middle" x="127.5" y="-7.5" font-family="Helvetica,sans-Serif" font-size="10.00">contraction44</text>
</a>
</g>
</g>
<!-- Node1&#45;&gt;Node3 -->
<g id="edge2" class="edge"><title>Node1&#45;&gt;Node3</title>
<path fill="none" stroke="midnightblue" d="M50.0723,-24.449C57.8355,-22.9813 66.7554,-21.295 75.6985,-19.6043"/>
<polygon fill="midnightblue" stroke="midnightblue" points="76.5693,-23.0017 85.7451,-17.7049 75.2689,-16.1236 76.5693,-23.0017"/>
</g>
</g>
</svg>
